<?xml version="1.0" encoding="utf-8"?>
<!-- Generator: Adobe Illustrator 25.4.1, SVG Export Plug-In . SVG Version: 6.00 Build 0)  -->
<svg version="1.1" id="Lineas_calles" xmlns="http://www.w3.org/2000/svg" xmlns:xlink="http://www.w3.org/1999/xlink" x="0px"
	 y="0px" width="1012.5px" height="1008px" viewBox="0 0 1012.5 1008" style="enable-background:new 0 0 1012.5 1008;"
	 xml:space="preserve">
<style type="text/css">
	.st0{fill:none;stroke:#FF0000;stroke-width:0.8504;stroke-miterlimit:10;}
</style>
<path class="st0" d="M890.2,937.8H118.4c-31.2,0-56.7-25.5-56.7-56.7V114.7c0-31.2,25.5-56.7,56.7-56.7h771.7
	c31.2,0,56.7,25.5,56.7,56.7v766.4C946.8,912.2,921.3,937.8,890.2,937.8z"/>
<path class="st0" d="M832.9,877.2H179.5c-31.2,0-56.7-25.5-56.7-56.7V171.7c0-31.2,25.5-56.7,56.7-56.7h653.4
	c31.2,0,56.7,25.5,56.7,56.7v648.8C889.6,851.7,864.1,877.2,832.9,877.2z"/>
<path class="st0" d="M223.7,472.6h-44.5c-31.2,0-56.7-25.5-56.7-56.7V171.9c0-31.2,25.5-56.7,56.7-56.7h44.5
	c31.2,0,56.7,25.5,56.7,56.7v244.1C280.4,447.1,254.9,472.6,223.7,472.6z"/>
<path class="st0" d="M832.6,466h-33.1c-31.2,0-56.7-25.5-56.7-56.7V171.9c0-31.2,25.5-56.7,56.7-56.7h33.1
	c31.2,0,56.7,25.5,56.7,56.7v237.4C889.3,440.5,863.7,466,832.6,466z"/>
<path class="st0" d="M323.4,215.1v-43.9c0-31.2,25.5-56.7,56.7-56.7H635c31.2,0,56.7,25.5,56.7,56.7v43.9
	c0,31.2-25.5,56.7-56.7,56.7H380.1C349,271.8,323.4,246.3,323.4,215.1z"/>
<path class="st0" d="M325.2,401.7v-26.4c0-31.2,25.5-56.7,56.7-56.7H634c31.2,0,56.7,25.5,56.7,56.7v26.4
	c0,31.2-25.5,56.7-56.7,56.7H381.9C350.7,458.4,325.2,432.9,325.2,401.7z"/>
<line class="st0" x1="690.7" y1="160.6" x2="690.7" y2="396.5"/>
<line class="st0" x1="323.4" y1="184.3" x2="326.9" y2="609.2"/>
<line class="st0" x1="280.4" y1="415.9" x2="282.1" y2="605.6"/>
<path class="st0" d="M326.9,609.2v-18.6c0-31.2,25.5-56.7,56.7-56.7h245.2c31.2,0,56.7,25.5,56.7,56.7v18.6
	c0,31.2-25.5,56.7-56.7,56.7H383.6C352.4,665.9,326.9,640.4,326.9,609.2z"/>
<path class="st0" d="M325.8,821.4V795c0-31.2,25.5-56.7,56.7-56.7h246.3c31.2,0,56.7,25.5,56.7,56.7v26.4
	c0,31.2-25.5,56.7-56.7,56.7H382.5C351.3,878.1,325.8,852.6,325.8,821.4z"/>
<line class="st0" x1="685.5" y1="601.2" x2="685.5" y2="808.2"/>
<line class="st0" x1="739.5" y1="600.6" x2="735.5" y2="803.3"/>
<circle class="st0" cx="713.8" cy="499.2" r="67"/>
<circle class="st0" cx="300.2" cy="699.3" r="67"/>
<path class="st0" d="M792.2,724.6h41.5c31.2,0,56.7,25.5,56.7,56.7v37.5c0,31.2-25.5,56.7-56.7,56.7h-41.5
	c-31.2,0-56.7-25.5-56.7-56.7v-37.5C735.5,750.1,761,724.6,792.2,724.6z"/>
<path class="st0" d="M796.1,536.3h37.5c31.2,0,56.7,25.5,56.7,56.7v17c0,31.2-25.5,56.7-56.7,56.7h-37.5
	c-31.2,0-56.7-25.5-56.7-56.7v-17C739.5,561.9,765,536.3,796.1,536.3z"/>
<path class="st0" d="M180.1,536.3h45.2c31.2,0,56.7,25.5,56.7,56.7v8.4c0,31.2-25.5,56.7-56.7,56.7h-45.2
	c-31.2,0-56.7-25.5-56.7-56.7V593C123.4,561.9,149,536.3,180.1,536.3z"/>
<path class="st0" d="M179.5,732h35c31.2,0,56.7,25.5,56.7,56.7v31.8c0,31.2-25.5,56.7-56.7,56.7h-35c-31.2,0-56.7-25.5-56.7-56.7
	v-31.8C122.8,757.5,148.3,732,179.5,732z"/>
<path class="st0" d="M294.6,766.1l13.2,0.2c13.6,4.8,18,21.7,17.8,22.4v31.8c0,31.2,5.8,56.7-25.4,56.7l0,0
	c-31.2,0-29.2-20.9-29.2-52.1l0.6-30.3C274.1,775,285.1,765.7,294.6,766.1z"/>
<path class="st0" d="M707.1,766.1l11.9,0.2c12.3,4.8,16.3,21.7,16.1,22.4v31.8c0,31.2,5.3,56.7-23,56.7l0,0
	c-28.3,0-26.5-20.9-26.5-52.1l0.5-30.3C688.5,775,698.5,765.7,707.1,766.1z"/>
<path class="st0" d="M280.4,176.4l0.5-30.3c2-19.8,10.6-29.1,18.1-28.7l10.4,0.2c10.7,4.8,14.2,21.7,14,22.4v31.8"/>
<path class="st0" d="M827.5,466l33,0.3c19.8,3.2,29.1,17.5,28.7,29.9l-0.2,17.1c-4.8,17.7-21.7,23.4-22.4,23.1h-31.8"/>
<path class="st0" d="M889.3,419.1"/>
<path class="st0" d="M946.8,414.4l0,20.5c-2.6,19.8-13.2,33.2-23.3,32.7l-81.9-1.8"/>
<path class="st0" d="M946.8,482.9l0,20.5c-2.6,19.8-13.2,33.2-23.3,32.7l-83.4,0.7"/>
<path class="st0" d="M889.3,522.7l0-20.5c2.6-19.8,16.8-35.1,26.9-34.6h4.3"/>
<path class="st0" d="M917.2,536.3c-19.8-2.6-28.1-16.5-27.6-26.5l0.8-10.3"/>
<path class="st0" d="M918.7,467.6c-20.8-2.6-29.5-16.5-29-26.5"/>
<path class="st0" d="M838.8,536.3l91.2,0c14.4,4.8,17.1,17.7,16.9,18.4l0,29.3"/>
<path class="st0" d="M852.1,466l77.9,1.6c14.4,4.8,17.1,27.3,16.9,28"/>
<path class="st0" d="M61.6,585.3l0-19.4c2.6-18.8,13.2-31.5,23.3-31.1l81.9,1.7"/>
<path class="st0" d="M61.6,520.3l0-19.4c2.6-18.8,13.2-31.5,23.3-31.1l83.4,1.7"/>
<path class="st0" d="M122.8,502.9c1,18.9-15.2,33.4-26.9,32.9"/>
<path class="st0" d="M122.7,482.1"/>
<path class="st0" d="M95.1,469.9c19.8,2.5,28.1,15.6,27.6,25.2"/>
<path class="st0" d="M89.8,534.8c20.8,2.5,34.1,27.2,33.6,36.8"/>
<path class="st0" d="M168.2,472.6l-89.8-3.1c-14.4-4.6-17.1-16.8-16.9-17.4l0-27.8"/>
<path class="st0" d="M156.4,536.4l-77.9-1.5c-14.4-4.6-17.1-26-16.9-26.6"/>
<path class="st0" d="M229.3,58l20,0c19.3,2.6,32.4,13.2,31.9,23.3l-1.8,81.9"/>
<path class="st0" d="M298.6,59.1l10.2,0c9.9,2.6,16.6,13.2,16.4,23.3l-0.9,83.4"/>
<path class="st0" d="M361.9,115.1c-18.9,1-36.4-17.7-35.9-29.4"/>
<path class="st0" d="M326,87.5c-2.5,19.8-15.6,28.1-25.2,27.6"/>
<path class="st0" d="M303.8,115.2c-19.8-2.5-23.2-15.6-22.7-25.2"/>
<path class="st0" d="M281.4,88.2c-3.3,16.7-36.1,27.4-48.8,27"/>
<path class="st0" d="M323.4,163.9l3.1-89.2c4.6-14.3,16.8-17,17.4-16.7l27.8,0"/>
<path class="st0" d="M280.4,152.7l1.5-77.9c4.6-14.4,26-17.1,26.6-16.9"/>
<path class="st0" d="M635,58l22,0c21.3,2.6,35.7,13.2,35.2,23.3l-1.9,81.9"/>
<path class="st0" d="M639.6,271.6l26.7,2.1c14.8,2.6,24.7,13.2,24.4,23.3"/>
<path class="st0" d="M637.3,318.6l26.7-1.4c14.8-2.6,27-8.5,26.7-18.5"/>
<path class="st0" d="M634.4,665.9l26.7,2.9c14.8,3.7,24.7,18.6,24.4,32.7"/>
<path class="st0" d="M632.1,732l26.7-2c14.8-3.7,27-11.9,26.7-26"/>
<path class="st0" d="M375.4,319l-26.7-2.1c-14.8-2.7-24.7-13.3-24.4-23.4"/>
<path class="st0" d="M377.8,271.8l-26.7,1.4c-14.8,2.7-27,8.5-26.7,18.6"/>
<path class="st0" d="M781.2,115.1c-20.9,1-40.1-17.7-39.6-29.4"/>
<path class="st0" d="M741.6,87.5c-2.8,19.8-17.3,28.1-27.8,27.6"/>
<path class="st0" d="M717.2,115.2c-21.8-2.5-25.6-15.6-25.1-25.2"/>
<path class="st0" d="M692.5,88.2c-3.7,16.7-39.9,27.4-53.8,27"/>
<path class="st0" d="M743.6,162.4l-1.4-87.7c5-14.3,18.5-17,19.2-16.7l30.7,0"/>
<path class="st0" d="M691.4,152.7l1.7-77.9c5-14.4,28.6-17.1,29.3-16.9"/>
<path class="st0" d="M790.2,936.8l-21.2,0c-20.5-2.8-34.4-13.9-33.9-24.4l1.9-85.9"/>
<path class="st0" d="M716.6,935.7l-10.9,0c-10.5-2.8-17.6-13.9-17.4-24.4l-2.2-88.3"/>
<path class="st0" d="M649.4,877c20.1-1.1,38.7,18.6,38.1,30.8"/>
<path class="st0" d="M687.5,905.9c2.7-20.7,16.6-29.5,26.7-29"/>
<path class="st0" d="M711.1,876.9c21,2.6,24.6,16.4,24.2,26.4"/>
<path class="st0" d="M734.8,905.2c3.5-17.5,38.4-28.7,51.8-28.3"/>
<path class="st0" d="M685.6,827.4l1.3,91.9c-4.8,15-17.9,17.8-18.5,17.5l-29.6,0"/>
<path class="st0" d="M735.9,837.5l-1.6,81.6c-4.8,15.1-27.6,17.9-28.2,17.7"/>
<path class="st0" d="M374.1,937.4l-21.2,0c-20.5-2.8-34.4-13.9-33.9-24.5l2.8-43.4"/>
<path class="st0" d="M300.5,936.3l-10.9,0c-10.5-2.8-17.6-13.9-17.4-24.5l-0.7-91.4"/>
<path class="st0" d="M233.3,877.3c20.1-1.1,38.7,18.7,38.1,30.9"/>
<path class="st0" d="M271.5,906.4c2.7-20.8,16.6-29.6,26.7-29.1"/>
<path class="st0" d="M295,877.3c21,2.6,24.6,16.5,24.2,26.5"/>
<path class="st0" d="M318.8,905.7c3.5-17.6,38.4-28.8,51.8-28.4"/>
<path class="st0" d="M271.6,826.8l-0.7,93.1c-4.8,15-17.9,17.9-18.5,17.6l-29.6,0"/>
<path class="st0" d="M326,809.7l-7.8,110c-4.8,15.1-27.6,18-28.2,17.8"/>
<g>
	<path class="st0" d="M846.4,874.7l30.3,0.7c19.8,2.9,29.1,15.6,28.7,26.5l-0.2,15.2c-4.8,15.7-21.7,20.8-22.4,20.5H851"/>
	<path class="st0" d="M946.8,830.9l-0.6,30.3c-2.7,19.8-14.5,29.1-24.8,28.7l-14.2-0.2c-14.7-4.8-19.4-21.7-19.2-22.4v-31.8"/>
</g>
<g>
	<path class="st0" d="M888.5,166.4l0.6-38.3c2.7-19.8,14.4-29.1,24.6-28.7l14.1,0.2c14.6,4.8,19.3,21.7,19.1,22.4v31.8"/>
	<path class="st0" d="M847.8,58l28.1,0.6c18.4,2.7,27,14.5,26.6,24.8l-0.2,14.2c-4.5,14.7-20.1,19.4-20.7,19.2l-48.7-1.8"/>
</g>
<path class="st0" d="M181.5,536.3l-30.3-0.7c-19.8-2.9-29.1-15.8-28.7-26.9l0.2-15.4c4.8-15.9,21.7-21.1,22.4-20.8h31.8"/>
<path class="st0" d="M691.7,176.4l0.6-30.3c2.3-19.8,12.6-29.1,21.5-28.7l12.3,0.2c12.8,4.8,16.9,21.7,16.7,22.4v31.8"/>
<path class="st0" d="M233.2,689.6L233,707c-4.8,18-21.7,23.8-22.4,23.5h-31.8c-31.2,0-56.7,7.7-56.7-33.5l-0.1-4.1
	c0-41.2,21-34.5,52.2-34.5l30.3,0.8C224.3,662.5,233.6,677,233.2,689.6z"/>
<path class="st0" d="M889.6,691.8l-0.3,13.8c-6.6,14.3-29.7,18.9-30.6,18.6h-43.5c-42.7,0-77.6,6.1-77.6-26.5l-0.1-3.3
	c0-32.6,28.7-27.3,71.4-27.3l41.5,0.6C877.4,670.3,890.2,681.8,889.6,691.8z"/>
<line class="st0" x1="814.3" y1="667.2" x2="393.5" y2="665.9"/>
<line class="st0" x1="815.2" y1="724.1" x2="509.8" y2="738.3"/>
<line class="st0" x1="215.3" y1="472.6" x2="386.1" y2="458.2"/>
<line class="st0" x1="201.3" y1="536.3" x2="507.6" y2="532.6"/>
<g>
	<path class="st0" d="M124.3,831.8l-0.7,31.9c-2.9,20.8-15.5,30.7-26.4,30.2l-15.1-0.2c-15.6-5.1-20.7-22.8-20.4-23.5v-33.5"/>
	<path class="st0" d="M167.8,937.5l-30.1-0.7c-19.7-2.8-28.9-15.3-28.5-26.1l0.2-14.9c4.8-15.5,21.6-20.5,22.2-20.2h31.6"/>
</g>
<g>
	<path class="st0" d="M168.8,115l-39.5,1.4c-19.1-2.7-28.1-14.6-27.6-24.9l0.2-14.2c4.6-14.7,20.9-19.5,21.5-19.3h30.6"/>
	<path class="st0" d="M61.8,158.2l0.6-28.4c2.6-18.6,14-27.3,23.9-26.9l13.7,0.2c14.2,4.5,18.7,20.4,18.5,21l4.4,47.7"/>
</g>
</svg>
