<?xml version="1.0" encoding="utf-8"?>
<!-- Generator: Adobe Illustrator 25.4.1, SVG Export Plug-In . SVG Version: 6.00 Build 0)  -->
<svg version="1.1" id="Capa_1" xmlns="http://www.w3.org/2000/svg" xmlns:xlink="http://www.w3.org/1999/xlink" x="0px" y="0px"
	 width="595.3px" height="595.3px" viewBox="0 0 595.3 595.3" style="enable-background:new 0 0 595.3 595.3;" xml:space="preserve"
	>
<style type="text/css">
	.st0{fill:none;stroke:#E6213C;stroke-miterlimit:10;}
</style>
<circle class="st0" cx="297.6" cy="297.6" r="70.9"/>
<path class="st0" d="M402.2,324.1h56.7c39,0,70.9,31.9,70.9,70.9v56.7c0,39-31.9,70.9-70.9,70.9h-56.7c-39,0-70.9-31.9-70.9-70.9
	v-56.7C331.4,356,363.3,324.1,402.2,324.1z"/>
<path class="st0" d="M136.7,324.1h56.7c39,0,70.9,31.9,70.9,70.9v56.7c0,39-31.9,70.9-70.9,70.9h-56.7c-39,0-70.9-31.9-70.9-70.9
	v-56.7C65.8,356,97.7,324.1,136.7,324.1z"/>
<path class="st0" d="M402.2,75.2h56.7c39,0,70.9,31.9,70.9,70.9v56.7c0,39-31.9,70.9-70.9,70.9h-56.7c-39,0-70.9-31.9-70.9-70.9
	v-56.7C331.4,107.1,363.3,75.2,402.2,75.2z"/>
<path class="st0" d="M136.7,75.2h56.7c39,0,70.9,31.9,70.9,70.9v56.7c0,39-31.9,70.9-70.9,70.9h-56.7c-39,0-70.9-31.9-70.9-70.9
	v-56.7C65.8,107.1,97.7,75.2,136.7,75.2z"/>
<g>
	<path class="st0" d="M368,306.3c0.5-20.4,19.3-32.6,52.7-32.6h48.5c33.4,0,60.6,31.9,60.6,70.9v56.7"/>
	<path class="st0" d="M368,291.4c0.5,20.4,19.3,32.6,52.7,32.6h48.5c33.4,0,60.6-31.9,60.6-70.9v-56.7"/>
	<line class="st0" x1="529.8" y1="146.1" x2="529.8" y2="428.4"/>
</g>
<g>
	<path class="st0" d="M227.1,290.6c-0.5,20.4-19.2,32.6-52.4,32.6h-48.2c-33.2,0-60.3-31.9-60.3-70.9v-56.7"/>
	<path class="st0" d="M227.1,305.5c-0.5-20.4-19.2-32.6-52.4-32.6h-48.2c-33.2,0-60.3,31.9-60.3,70.9v56.7"/>
	<line class="st0" x1="66.2" y1="450.8" x2="66.2" y2="168.5"/>
</g>
<path class="st0" d="M290.6,368.5c25.5,0.5,40.8,18.4,40.8,50.1v46.2c0,31.7-39.8,57.7-88.5,57.7H172"/>
<path class="st0" d="M305,368.5c-25.5,0.5-40.8,18.4-40.8,50.1v46.2c0,31.7,39.8,57.7,88.5,57.7h70.8"/>
<line class="st0" x1="427.6" y1="522.5" x2="139" y2="522.5"/>
<path class="st0" d="M305.2,227.1c-25.5-0.5-40.8-18.1-40.8-49.4v-45.6c0-31.3,39.8-56.9,88.5-56.9h70.8"/>
<path class="st0" d="M290.8,227.1c25.5-0.5,40.8-18.1,40.8-49.4v-45.6c0-31.3-39.8-56.9-88.5-56.9h-70.8"/>
<line class="st0" x1="168.2" y1="75.2" x2="456.8" y2="75.2"/>
</svg>
