<?xml version="1.0" encoding="utf-8"?>
<!-- Generator: Adobe Illustrator 25.4.1, SVG Export Plug-In . SVG Version: 6.00 Build 0)  -->
<svg version="1.1" id="Calles" xmlns="http://www.w3.org/2000/svg" xmlns:xlink="http://www.w3.org/1999/xlink" x="0px" y="0px"
	 width="1012.5px" height="1008px" viewBox="0 0 1012.5 1008" style="enable-background:new 0 0 1012.5 1008;" xml:space="preserve"
	>
<style type="text/css">
	.st0{fill:#403F44;}
</style>
<path class="st0" d="M967.9,381c0-95.5-0.1-191-0.1-286.5c0-29.1-17.5-48.7-46.6-51.8c-5.4,0-10.7,0.1-16.1,0.1
	c-269.8,0-539.6,0-809.4,0c-1,0-2.1-0.1-3.1-0.1C78,43.7,66.1,49.9,57.7,62c-6.2,8.9-8.9,19-10.1,29.6c0.5,5.1,0.5,10.3,0,15.4
	c0,3.1,0.1,6.2,0.1,9.3c0,260.9,0,521.8,0,782.8c0,5-0.1,10.1,0.4,15c1.5,13.2,7.2,24.1,18.3,31.8c11.2,7.8,23.8,10.6,37.3,10.5
	c267.1-0.1,534.2,0,801.3,0c5.4,0,10.7,0.1,16.1-0.1c5.9-0.2,11.7-1.2,17.2-3.5c21.1-9.3,29.7-26.8,29.7-48.6
	C968.1,729.8,967.9,555.4,967.9,381z M97.8,120.2c2.7,0,0.7,3.7,1.5,5.7c-1.3,1.7,1.7,5.6-1.9,5.6c-2.7,0-1.3-3.7-1.2-5.6
	C96.2,123.9,94.4,120.1,97.8,120.2z M97.6,361.9c-3.1,0.1-1.6-3.3-1.5-5c0-2.1-1.6-6.1,1.4-6.1c3.1,0,0.7,4,1.7,5.9
	C98.3,358.5,100.6,361.9,97.6,361.9z M96,424.1c-0.2-0.8-0.1-1.7,0-2.6c0.1-1.1-0.5-2.7,1.4-2.8c2.3-0.2,1.6,1.7,1.7,2.9
	c0.1,0.9,0,1.7,0,2.9c-0.8,1.6,1.3,5.4-1.3,5.4C94.4,430,96.6,426.2,96,424.1z M99.1,401.2c0,1.4,0,2.5,0,3.5c0,1.2,0.2,2.6-1.7,2.5
	c-1.5-0.1-1.4-1.3-1.4-2.3c0-1-0.2-2.1,0-3.1c0.5-2-1.7-5.8,1.8-5.8C100.6,396,98.3,399.7,99.1,401.2z M97.5,442.2
	c3.2,0,0.7,4,1.8,5.9c-0.9,1.8,1.3,5.1-1.7,5.2c-3.1,0.1-1.5-3.3-1.5-5C96.1,446.2,94.5,442.3,97.5,442.2z M97.7,573.2
	c-3.4,0-1.6-3.5-1.6-5.4c-0.1-1.9-1.5-5.7,1.3-5.7c3.6,0,0.7,3.9,2,5.8C98.4,569.7,100.5,573.1,97.7,573.2z M97.7,614.4
	c-2.1,0.1-1.7-1.7-1.7-3c-0.1-1,0-2.1,0-3.1c0-1.2,0-2.4,0-3.6c0-1,0.5-1.7,1.4-1.8c1.4-0.1,1.7,0.9,1.7,2c0,2.2,0.1,4.5,0,6.7
	C99,612.7,99.4,614.4,97.7,614.4z M97.5,596.3c-3,0-0.9-3.9-1.5-5.9c-0.2-0.6-0.1-1.4,0-2c0.1-1.2-0.6-3.1,1.4-3.3
	c2.6-0.2,1.5,2.1,1.7,3.4c0.1,0.7,0,1.4,0,2.4C98.3,592.4,100.6,596.3,97.5,596.3z M96,544.7c0-1.4,0-2.5,0-3.5
	c0-1.3,0.1-2.5,1.9-2.4c1.5,0.1,1.2,1.4,1.3,2.4c0,1,0.2,2.1,0,3.1c-0.4,2,1.3,5.7-1.3,5.7C94.2,550.1,97,546.2,96,544.7z
	 M97.8,524.9c-3.3,0-1.6-3.5-1.7-5.4c0-2-1.4-5.7,1.3-5.7c3.5,0,0.8,3.9,1.9,5.8C98.5,521.4,100.4,524.8,97.8,524.9z M97.6,478.7
	c-1.8,0-1.6-1.4-1.6-2.6c0-1.2,0-2.4,0-3.6c0-1,0-2.1,0-3.1c0-1.1,0-2.1,1.5-2.1c1.5,0,1.6,1,1.6,2.1c0,2.2,0.1,4.5,0,6.7
	C99,477.1,99.5,478.7,97.6,478.7z M97.7,490.4c2.3,0,1,2.4,1.4,3.7c0.2,0.6,0,1.4,0,2.1c0,0,0,0-0.1,0c0,0.9,0.1,1.7,0,2.6
	c-0.2,1.2,0.8,3.1-1.6,3c-2.2-0.2-1.4-2-1.5-3.2c-0.1-1.4-0.2-2.8,0-4.1C96.2,492.9,94.9,490.4,97.7,490.4z M99.1,331.2
	c0.2,0.6,0,1.4,0,2.1c0,0,0,0,0,0c0,0.9,0.1,1.7,0,2.6c-0.2,1.2,0.7,3.1-1.6,3c-1.8-0.1-1.4-1.6-1.5-2.8c0-1.5-0.1-3.1,0-4.6
	c0.2-1.5-1.1-4,1.7-4C100,327.5,98.8,329.8,99.1,331.2z M97.6,196.7c-3.1,0.1-1.5-3.3-1.5-5c0-2.1-1.6-6,1.4-6.1
	c3.2,0,0.6,4,1.8,5.9C98.4,193.4,100.5,196.7,97.6,196.7z M97.7,290.5c-2.1,0.1-1.6-1.8-1.7-3c-0.1-1,0-2.1,0-3.1c0-1,0-2.1,0-3.1
	c0-1.1,0.1-2.2,1.4-2.3c1.8-0.1,1.7,1.3,1.7,2.5c0,2.1,0.1,4.1,0,6.2C99,288.8,99.4,290.4,97.7,290.5z M97.4,267.3
	c-1.4-0.1-1.5-1.1-1.5-2.2c0-1.7-0.1-3.5,0.1-5.2c0.2-1.5-1-4.1,1.7-4c2.3,0.1,1.1,2.4,1.4,3.8c0.1,0.7,0,1.4,0,2.1c0,1,0,2.1,0,3.1
	C99.1,266,99.3,267.4,97.4,267.3z M97.6,230.6c2.3,0.1,1.3,2,1.5,3.2c0.1,0.8,0,1.7,0,2.6c0,0.9,0.1,1.7,0,2.6
	c-0.1,1.3,0.5,3.2-1.6,3.1c-2.1-0.1-1.3-2-1.4-3.2c-0.1-1.7-0.1-3.5,0-5.2C96.1,232.5,95.4,230.6,97.6,230.6z M97.5,219
	c-2.4-0.1-1.4-2.3-1.5-3.7c-0.1-1.5-0.1-3.1,0-4.7c0.1-1.3-0.4-3.2,1.7-3.1c2.2,0.1,1.3,2,1.4,3.2c0.1,0.8,0,1.7,0,2.6
	c0,0.7,0.1,1.4,0,2.1C98.8,216.7,100.1,219,97.5,219z M96,171.2c-0.1-0.3-0.1-0.7,0-1c0.5-1.6-1.1-4.6,1.7-4.5c2.7,0.1,1,3,1.4,4.6
	c0.1,0.3,0,0.7,0,1.4c-1,1.5,1.7,5.5-1.6,5.4C94.5,177.1,96.6,173.3,96,171.2z M96.1,150.3c0.1-2.2-1.8-6.3,1.6-6.4c3,0,0.5,4,1.6,6
	c-0.8,1.9,1.2,5.2-1.6,5.3C94.5,155.4,96.1,152,96.1,150.3z M97.4,302.5c3.5,0,0.7,3.9,1.9,5.7c-0.7,1.9,1.1,5.3-1.5,5.3
	c-3.4,0-1.6-3.5-1.6-5.4C96.1,306.2,94.5,302.5,97.4,302.5z M97.5,626.4c3.3,0,0.6,3.7,1.8,5.4c-1,1.9,1.3,5.6-1.7,5.6
	c-3.2,0-1.4-3.6-1.5-5.5C96,630,94.4,626.4,97.5,626.4z M97.5,660.7c-2.2-0.1-1.4-2-1.5-3.2c-0.1-1.7-0.1-3.4,0-5.2
	c0.1-1.3-0.5-3.2,1.6-3.1c2.1,0.1,1.3,2,1.4,3.2c0.1,0.8,0,1.7,0,2.6c0,0.9,0.1,1.7,0,2.6C98.9,658.8,99.8,660.8,97.5,660.7z
	 M97.4,674.7c3.4,0,0.7,3.9,1.8,5.7c-0.8,1.9,1.1,5.4-1.6,5.3c-3.2,0-1.5-3.6-1.6-5.4C96.1,678.4,94.6,674.7,97.4,674.7z
	 M97.5,780.7c-2.3-0.1-1.4-2.3-1.5-3.7c-0.1-1.5-0.1-3.1,0-4.6c0-1.3-0.5-3.1,1.6-3.1c2.2,0,1.3,2,1.4,3.2c0.1,0.8,0,1.7,0,2.6
	c0,0.7,0.1,1.4,0,2.1C98.8,778.4,100.1,780.7,97.5,780.7z M96,800.9c-0.1-1,0-2.1,0-3.1c0,0,0,0,0,0c0-1.2,0-2.4,0-3.6
	c0-0.9,0.3-1.7,1.4-1.8c1.4-0.1,1.7,0.7,1.7,1.9c0,2.2,0.1,4.5,0,6.7c0,1.1,0.6,2.7-1.3,2.8C95.6,804,96.1,802.1,96,800.9z
	 M99.1,754.4c-0.1,1.2,0.6,3.2-1.6,3.1c-2.1-0.1-1.4-2-1.5-3.2c-0.1-0.9,0-1.7,0-2.6c0-0.9-0.1-1.7,0-2.6c0.1-1.3-0.5-3.2,1.6-3.1
	c2.1,0.1,1.3,2,1.4,3.3C99.2,751,99.2,752.7,99.1,754.4z M97.3,732c-2.7,0-0.9-3.7-1.3-5.7c-0.2-0.7-0.1-1.4,0-2.1
	c0.2-1.3-0.8-3.6,1.8-3.4c2.1,0.2,1,2.1,1.3,3.3c0.1,0.7,0,1.4,0,2.5C98.2,728.1,100.7,732,97.3,732z M97.7,697.7
	c2.2,0.1,1.2,2.1,1.4,3.2c0.1,0.8,0,1.7,0,2.6c0,0.9,0.1,1.7,0,2.6c-0.2,1.2,0.7,3.2-1.6,3.1c-2.1-0.1-1.4-2-1.5-3.2
	c-0.1-1.7-0.1-3.5,0-5.2C96,699.5,95.5,697.7,97.7,697.7z M97.5,870.6c-2.1-0.1-1.4-2-1.5-3.2c-0.1-1.9-0.1-3.8,0-5.7
	c0-1.1-0.3-2.7,1.4-2.8c2.3-0.1,1.5,1.8,1.7,3c0.1,1,0,2.1,0,3.1c0,0.9,0.1,1.7,0,2.6C98.9,868.8,99.7,870.7,97.5,870.6z
	 M97.8,846.8c-3.4,0.1-1.7-3.5-1.7-5.4c0-2.1-1.5-6,1.5-6c3.2,0.1,0.6,4,1.7,5.9C98.6,843.3,100.2,846.8,97.8,846.8z M97.5,823.1
	c-3.2,0-0.6-4-1.7-5.8c0.7-2-1.1-5.4,1.5-5.5c3.4-0.1,1.7,3.5,1.7,5.4C98.9,819.2,100.6,823.1,97.5,823.1z M97.7,385.1
	c-3.1,0.1-1.7-3.2-1.6-4.9c0.1-2.1-1.6-6,1.4-6.1c3.6-0.1,0.2,4,1.9,5.5C98.4,381.7,100.4,385,97.7,385.1z M877.4,93.4
	c0.6-0.2,1.4-0.1,2,0c1.3,0.3,3.6-1,3.3,1.7c-0.2,2.1-2.1,1.2-3.3,1.4c-0.7,0.1-1.4,0-2.4,0c-1.6-0.9-5.5,1.7-5.6-1.6
	C871.5,91.9,875.3,93.9,877.4,93.4z M868.2,495.8c0.8-0.1,1.8-0.2,2.6,0c1.9,0.4,4.4-1.2,5.5,1.4c0.6,1.4-0.5,1.7-5.6,1.7
	c-0.9,0-1.7,0.1-2.6,0c-1.2-0.1-3.1,0.7-3-1.6C865.1,495,867,496,868.2,495.8z M865.5,614.8c0.5,0.9,0.6,1.9,0.1,2.9
	c-0.1,8.8-0.2,17.6-0.2,26.4c0,3.4-0.9,5.1-4.7,5.1c-24.9-0.1-49.7-0.2-74.6-0.2c-5.9,0-11.7,0-17.6,0.1c-3.8,0.7-5.5-0.4-5.2-4.7
	c0.4-7.5,0.1-15.1,0.1-22.7c0-1.5-0.4-3.1,0.9-4.4c-1.9-6.4-0.1-12.7,0.1-19.1c0,0,0,0,0,0c-0.1-0.2-0.3-0.4-0.3-0.5
	c0-0.1,0.1-0.2,0.1-0.3c0-8.5,0.2-16.9,0-25.4c-0.1-3.1,1-5.1,3.3-7c3.8-3.2,7.9-6.4,10.8-10.4c3.2-4.3,6.8-5.5,11.8-5.5
	c23.2,0.2,46.3,0.2,69.5,0c4.3,0,6,1.3,5.7,5.6c-0.4,7.4,0.5,14.8-0.5,22.2c-0.2,0.6-0.5,1.2-0.7,1.8c0,0.3,0,0.5,0,0.8
	c0,0.3,0,0.5,0,0.8c0.9,0.5,1.1,1.5,1.2,2.4c0.8,1.3,0.8,2.7,0,4C865.5,596.1,865.5,605.5,865.5,614.8z M853.7,700.3
	c0.1,1.7-1.1,1.8-2.4,1.8c-1,0-2.1,0.2-3,0c-1.8-0.4-4.3,1.4-5.2-1.4c-0.5-1.5,0.2-1.7,5.3-1.7c1,0,2,0,3.1,0
	C852.5,699,853.6,698.9,853.7,700.3z M831.8,700.6c-0.1,2-1.9,1.4-3.1,1.5c-0.8,0.1-1.7,0-2.5,0c-1.2,0-2.4,0-3.6,0
	c-1,0-1.6-0.6-1.5-1.6c0.1-1,0.7-1.5,1.7-1.5c2,0,4.1-0.1,6.1,0C830.1,699,831.9,698.4,831.8,700.6z M809.7,700.3
	c0.1,3.5-3.8,0.9-5.3,1.8c-1.3,0-2.1,0-3,0c-1.3,0-2.5-0.2-2.3-1.9c0.1-1.5,1.4-1.2,2.4-1.2c0.9,0,1.8-0.2,2.6,0
	C806.1,699.4,809.7,697.6,809.7,700.3z M792.5,700.7c0,3.1-3.7,0.7-5.2,1.5c-0.9,0-1.4,0.1-1.9,0c-1.4-0.4-4.1,1.1-4.1-1.5
	c0-2.5,2.6-1.3,4.1-1.6c0.5-0.1,1.1-0.1,1.5,0C788.9,699.6,792.5,697.5,792.5,700.7z M766.6,501.8c-1.1,2.6,0.3,7.9-2.6,7.7
	c-3.6-0.3,0-4.6-0.7-7.1c-0.1-0.3,0-0.7,0.1-1c0.4-1.4-0.8-4.1,1.9-3.8C767.8,497.8,766,500.3,766.6,501.8z M763.5,484.7
	c-1.1,0.3-1.6-0.5-1.9-1.3c-1.1-2.9-2.2-5.8-3.4-8.7c-0.3-0.8-0.1-1.5,0.5-1.8c0.8-0.5,1.8-0.3,2.2,0.6c1.3,3,2.5,6,3.3,7.9
	C764.7,483.6,764.6,484.4,763.5,484.7z M766,699.1c1.3,0,3.6-0.9,3.6,1.5c0,2.4-2.3,1.2-3.6,1.6c-1.2-0.5-3.6,0.9-3.6-1.6
	C762.4,698.2,764.6,699.1,766,699.1z M802.6,497.4c-0.1-3.1,3.3-1.5,5-1.5c2.1,0,6-1.6,6.1,1.4c0,3.4-4,0.6-5.9,1.8
	C806,498.1,802.7,500.3,802.6,497.4z M820.4,497.2c0.1-2.8,3.7-0.8,5.3-1.5c0.9,0,1.4-0.1,1.9,0c1.4,0.2,3.7-0.6,3.6,1.7
	c-0.1,2.2-2.4,1.2-3.7,1.5c-0.5,0.1-1.1,0.1-1.5,0C824,498.4,820.4,500.2,820.4,497.2z M842.7,497.5c-0.1-3.4,3.5-1,5-1.8
	c1,0,1.7-0.1,2.4,0c1.3,0.2,3.6-0.9,3.5,1.6c-0.1,2.5-2.3,1.2-3.6,1.5c-0.7,0.1-1.4,0.1-2,0C846.1,498.4,842.7,499.9,842.7,497.5z
	 M853.7,93.1c1.9,0.8,5.3-1.1,5.4,1.5c0.1,3.3-3.5,1.7-5.4,1.7c-2.1-0.1-6,1.8-5.9-1.5C847.8,91.6,851.8,94.3,853.7,93.1z M830,93.2
	c2,0.7,5.4-1,5.5,1.4c0.1,3.4-3.5,1.8-5.3,1.7c-2.1,0-6.1,1.5-6-1.5C824.1,91.8,828,94.2,830,93.2z M807.7,93.4c0.8-0.1,1.7,0,2.6,0
	c0.7,0,1.4-0.1,2.1,0c1.3,0.3,3.7-1,3.6,1.5c-0.1,2.2-2.3,1.4-3.7,1.5c-1.5,0.1-3.1,0.1-4.6,0c-1.3-0.1-3.2,0.4-3.1-1.7
	C804.6,92.6,806.5,93.6,807.7,93.4z M784.5,93.4c1.5-0.1,3.1-0.2,4.6,0c1.3,0.2,3.7-0.9,3.6,1.5c-0.1,2.3-2.3,1.3-3.7,1.6
	c-0.7,0.1-1.4,0-2.1,0c0,0,0,0,0,0c-0.9,0-1.7,0.1-2.6,0c-1.3-0.1-3.2,0.5-3.1-1.6C781.3,92.7,783.3,93.5,784.5,93.4z M858.5,144.6
	c5,0,6.9,1.5,6.4,6.5c-0.3,3.3-0.2,6.6-0.3,9.8c0.1,22.3,0.3,44.6,0.4,66.8c0,16.9-0.1,33.9-0.1,50.8c0,0.3,0,0.6-0.1,0.9
	c0.1,32,0.3,64,0.3,96c0,21.8-0.1,43.6,0.1,65.4c0,4-1.1,5.5-5.2,5.5c-22.8-0.2-45.7-0.5-68.5,0.1c-8.3,0.2-12.7-3.4-16.1-10
	c-0.3,0-0.5-0.1-0.7-0.3c-0.7,0.1-0.9-0.4-1-0.9c-0.3-0.2-0.6-0.4-0.8-0.6c-1.7-0.6-2.8-1.8-3.5-3.5c-0.4-0.4-0.8-0.7-1.3-1.1
	c-1.6-0.1-2.5-1.1-3-2.5c-0.3-0.9-0.7-1.8-1-2.7c-1-11.7-0.9-23.5-0.1-35.2c-0.1-33-0.3-66.1-0.3-99.1c-0.1-46.5-0.1-93.1-0.4-139.6
	c0-5.2,1.7-6.4,6.5-6.3C799.4,144.8,829,144.9,858.5,144.6z M760,93.4c2.2,0,4.5-0.1,6.7,0c1.1,0,2.7-0.5,2.8,1.3
	c0.1,2.2-1.7,1.7-3,1.8c-1,0.1-2.1,0-3.1,0c0,0,0,0,0,0c-1.2,0-2.4,0-3.6,0c-0.9,0-1.7-0.3-1.8-1.4C757.9,93.5,758.9,93.4,760,93.4z
	 M736.7,93.4c0.6-0.2,1.4,0,2.1,0c0.9,0,1.7-0.1,2.6,0c1.2,0.2,3.2-0.6,3.1,1.6c-0.1,2-2,1.4-3.3,1.5c-1.5,0.1-3.1,0.1-4.6,0
	c-1.4-0.1-3.6,0.8-3.5-1.7C733.1,92.3,735.4,93.7,736.7,93.4z M730,446.2c0.9,0.2,1.5,0.7,1.2,1.8c-0.3,1.1-1.1,1.1-2,0.9
	c-2.8-0.7-5.6-1.4-8.4-2c-1-0.2-2.2-0.3-2-1.7c0.3-1.8,1.7-1.2,4.2-0.9C724.4,444.7,727.2,445.4,730,446.2z M715.6,93.5
	c1.8,0.1,5.4-1.7,5.3,1.6c0,2.7-3.5,0.8-5.4,1.5c-1.8-1-5.7,1.5-5.7-2C709.9,92.2,713.6,93.4,715.6,93.5z M712.7,408
	c-2.4,0-1.3-2.3-1.5-3.7c-0.2-1.5-0.1-3.1,0-4.7c0.1-1.2-0.8-3.1,1.5-3.1c2.2,0,1.4,1.9,1.5,3.2c0.1,0.9,0,1.7,0,2.6
	c0,0.7,0.1,1.4,0,2.1C714,405.7,715.1,408.1,712.7,408z M711.5,373.6c1.1-0.6,1.8,0.4,1.9,1.7c0,1.2,0,2.4,0,3.6c0,0,0,0,0,0
	c0,1,0,2,0,3.1c0,1.2-0.5,2.2-1.8,1.9c-2.5-0.6-1.4-2.9-1.3-4.3C710.5,377.5,708.9,375,711.5,373.6z M713.4,206.3c0,0.7,0,1.4,0,2
	c0,0,0,0-0.1,0c0,1.2,0,2.4,0,3.6c0,1-0.7,1.5-1.7,1.5c-1.1,0-1.4-0.8-1.4-1.7c0-1.9-0.1-3.8,0-5.6c0.1-1.2-0.7-3.1,1.6-3
	C713.9,203.2,713.3,205,713.4,206.3z M711.9,224c2.9,0,0.9,3.3,1.5,4.7c0,1.6,0,2.8,0,4c0,1-0.6,1.6-1.6,1.6c-1.1,0-1.5-0.7-1.5-1.6
	c0-1.2-0.2-2.4,0-3.6C710.7,227.3,708.9,224,711.9,224z M711.6,277.6c-2.6,0-0.8-3.4-1.4-4.8c0-1.2,0-2.1,0-2.9
	c0.1-1.1-0.2-2.6,1.7-2.5c1.4,0.1,1.4,1.3,1.4,2.3c0,0.9,0.2,1.8,0,2.6C712.9,274.1,715.1,277.6,711.6,277.6z M713.4,313.8
	c0,1.6,0,2.8,0,3.9c0,0.9-0.5,1.6-1.5,1.7c-1.5,0.2-1.6-0.9-1.7-1.9c-0.1-1.2-0.2-2.4,0-3.6c0.3-1.6-1.1-4.6,1.4-4.6
	C714.9,309.3,712.7,312.5,713.4,313.8z M711.9,298.4c-3.5,0.1-0.4-3.7-1.6-4.7c0-1.7,0-2.7,0-3.7c0-0.9,0.3-1.7,1.4-1.8
	c1.4-0.1,1.7,0.9,1.7,2c0,0.9,0.2,1.8,0,2.6C713,294.8,714.9,298.3,711.9,298.4z M713.4,247.9c0.1,0.7,0,1.4,0,2c0,0,0,0-0.1,0
	c0,1.2,0,2.4,0,3.6c0,1-0.6,1.6-1.6,1.6c-1.1,0.1-1.4-0.8-1.5-1.7c-0.1-1.9-0.1-3.8,0-5.6c0-1.2-0.6-3.1,1.6-3.1
	C713.9,244.8,713.3,246.7,713.4,247.9z M710.2,337c0-1.2,0-2.1,0-2.9c0-1,0-2.2,1.4-2.3c1.8-0.2,1.7,1.2,1.8,2.4
	c0,0.9,0.2,1.7,0,2.6c-0.4,1.8,1.3,5.1-1.4,5.1C708.5,341.9,711.1,338.4,710.2,337z M710.3,358c0-1.2-0.1-1.9,0-2.6
	c0.1-1.1-0.4-2.7,1.4-2.7c2.1-0.1,1.7,1.7,1.8,3c0,0.7,0.1,1.4,0,2c-0.5,1.8,1.3,5.1-1.4,5.1C708.5,362.8,711.5,359.2,710.3,358z
	 M709.8,137c0.1-1.2,0.1-2.6,1.8-2.5c1.3,0.1,1.3,1.4,1.3,2.4c0,2.2,0,4.4,0,6.7c0,1.1,0.3,2.7-1.5,2.7c-1.7,0-1.6-1.5-1.6-2.7
	c-0.1-1.2,0-2.4,0-3.6c0,0,0,0,0,0C709.8,139.1,709.7,138.1,709.8,137z M709.8,164.5c0-1.5-0.1-2.4,0-3.2c0.1-1.3-0.4-3.1,1.7-3
	c2,0.1,1.4,2,1.5,3.2c0.1,0.8,0.2,1.7,0,2.5c-0.4,2,1.2,5.7-1.4,5.7C708,169.7,711.1,165.7,709.8,164.5z M711.4,182.2
	c3,0,0.6,3.7,1.5,5c0,1.1,0.1,1.7,0,2.1c-0.5,1.4,1,4.1-1.6,4.1c-2.4-0.1-1.2-2.7-1.5-4.2c-0.1-0.5-0.1-1.1,0-1.5
	C710.4,185.7,708.3,182.1,711.4,182.2z M706.2,445c-0.1,0.5-0.1,0.8-0.2,1.1c-0.4,0.8-11,3.4-11.6,2.8c-0.7-0.6-1.1-1.7-0.3-2.1
	c3.5-1.7,7.3-2.6,11.3-2.8C705.7,444,706,444.7,706.2,445z M692.1,93.3c1.4,0,2.5,0,3.5,0c1,0,2.2-0.3,2.4,1.3
	c0.2,1.8-1.1,1.9-2.4,1.9c-1,0-2.1,0.2-3.1-0.1c-2-0.6-5.8,1.7-5.8-1.8C686.8,92,690.5,94.1,692.1,93.3z M674.4,292.8
	c-0.1,2.7-3.8,0.4-5.5,1.6c-2.1-1-5.8,1.2-5.8-1.9c0-3,3.6-1.5,5.6-1.5C670.7,291.1,674.5,289.5,674.4,292.8z M666.8,474.2
	c-1.3,3.5-2.6,7-4,10.4c-0.1,0.2-0.6,0.2-0.8,0.3c-1.2,0-1.6-0.8-1.4-1.7c0.7-3.5,2-6.8,3.8-10c0.3-0.6,1.2-0.8,1.8-0.3
	C666.5,473.3,666.9,473.9,666.8,474.2z M663.7,93.4c1.9,0,3.8-0.1,5.7,0c1.2,0.1,3.2-0.8,3.4,1.2c0.2,2.5-2,1.7-3.4,1.9
	c-0.9,0.1-1.7,0-2.6,0c0,0,0,0,0,0c-1,0-2.1,0-3.1,0c-1.3,0-2.5-0.1-2.4-1.8C661.5,93.1,662.8,93.4,663.7,93.4z M552.8,446.4
	c-52.9,0-105.8,0-158.7,0c-1.5,0-3.1-0.4-4.6-0.6c-0.9-0.1-1.8-0.1-2.7-0.2c-9.8,0.1-19.7,0.2-29.5,0.4c-4.2,0.1-3.1-2.5-2.7-4.8
	c0-31.9-0.1-63.7-0.1-95.6c-0.2-1,0-1.8,1-2.2c0.6-0.1,1.2-0.2,1.8-0.3c22.1,0,44.2-1.4,66.3,0.7c10.9-0.7,21.7-1,32.6,0.1
	c3.1,0,6.1,0,9.2-0.1c0.3-0.1,0.7-0.1,1-0.1c0.6-0.9,1.2-1.6,2.5-1.5c13.2,1.4,26.5,0.5,39.8,0.4c9.3-0.1,18.6-1,27.9-0.8
	c7,0.2,14.1-0.6,20.9,1.9c9.4-1.2,18.9-0.2,28.4-0.5c2.6-0.1,5.1-0.2,7.7-0.3c1.1,0.2,2.1,0.5,3.2,0.7c19.1-1.8,38.2-0.6,57.3-0.9
	c2,0,4.2-0.4,6.1,0.8c0.2,16.4,0.5,32.8,0.7,49.2c0.1,9.9,0.2,19.7,0.5,29.6c0.1,3-0.8,5.3-3.3,7.1c-6.2,4.4-10.4,11-16.2,15.9
	c-1.3,1.1-2.9,1-4.5,1c-24.2,0-48.4,0-72.6,0L552.8,446.4z M660.8,645.5c0.1,3.7-1.6,4-4.3,3.6c-0.5-0.1-1.1-0.1-1.6-0.2
	c-33.4,0-66.8,0.1-100.2,0.1c-10.4,0-20.7-0.1-31.1-0.1c-33.2,0-66.5,0-99.7,0.1c-15.4,0.1-30.8,0.1-46.1,0.2
	c-2.7,0-4.5-1.1-6.1-3.1c-4.1-5.4-8.9-10.2-14.4-14c-1.7-1.2-2.7-2.5-2.7-4.7c0.1-18.7,0.2-37.3,0.3-56c-0.6-5.8-0.9-11.5,0.5-17.2
	c-2.1-3.7-1.5-5.5,3.2-5.4c9.2,0.2,18.5,0.1,27.7,0.1c37-0.1,74-0.3,111-0.3c45-0.1,89.9-0.1,134.9,0c3.6,0,7.3-0.7,10.7,1
	c5,5.1,9.7,10.5,15.1,15.2c2.8,2.5,3.6,5.1,3.7,8.5c0.5,14.7-1.1,29.3-1,43.9C660.5,626.6,660.4,636.1,660.8,645.5z M657.4,700.3
	c0.2,1.7-1.1,1.8-2.4,1.8c-1,0-2.1,0.2-3,0c-1.8-0.4-5.1,1.3-5.1-1.3c-0.1-3.4,3.4-1,4.8-1.8c1.4,0,2.4,0,3.4,0
	C656.2,699,657.3,698.9,657.4,700.3z M635.6,700.5c0,2.2-1.9,1.4-3.1,1.6c-0.8,0.1-1.7,0-2.6,0c-1,0-2.1,0-3.1,0
	c-1.1,0-2.1-0.3-2.2-1.6c-0.1-1.5,1.1-1.5,2.1-1.5c1.9,0,3.8-0.1,5.7,0C633.7,699,635.6,698.5,635.6,700.5z M618.1,700.5
	c0,3.8-4,0.3-5.4,2c-2.1-0.9-5.5,1-5.5-1.7c0-3.3,3.5-1.6,5.4-1.6C614.4,699.2,618.1,697.6,618.1,700.5z M595.1,700.4
	c0.1,3-2.7,1-3.6,1.9c-1.5-0.4-3.5,0.6-3.5-1.5c0-2.9,2.5-1.6,3.9-1.7C593.1,699,595.1,698.4,595.1,700.4z M580.8,699.9
	c0.1,1.3-0.7,1.8-1.9,1.8c-1.9,0-3.8,0-5.7,0c-1.3,0-3,0.6-3-1.6c0-2.3,1.9-1.3,3.1-1.5c0.8-0.1,1.7,0,2.6,0c1,0,2.1,0,3.1,0
	C579.8,698.7,580.7,698.8,580.8,699.9z M559.1,700.3c-0.1,2.2-2.4,1.2-3.8,1.5c-0.3,0.1-0.7,0.1-1,0c-2-0.5-5.5,1.3-5.6-1.5
	c-0.1-3.4,3.6-0.7,4.9-1.6c0.9,0,1.4,0,1.9,0C556.9,698.8,559.2,698.1,559.1,700.3z M535.7,700.3c-0.1,2.4-2.3,1.3-3.7,1.5
	c-0.5,0.1-1.1,0.1-1.5,0c-1.9-0.4-5.3,1.1-5.3-1.4c0-3.4,3.7-0.5,4.9-1.7c1.1,0,1.6-0.1,2.1,0C533.5,699.1,535.8,697.7,535.7,700.3z
	 M513.9,700.4c-0.1,2.7-3.4,0.7-5.2,1.5c-1.8-0.8-5.1,1.3-5.1-1.7c0-3.1,3.3-1.5,5-1.4C510.4,698.9,513.9,696.9,513.9,700.4z
	 M492.3,700.3c-0.1,2.6-2.7,1.1-4.1,1.6c-0.3,0.1-0.7,0.1-1,0c-1.8-0.6-5.1,1.2-5.1-1.5c0-3.5,3.6-0.7,4.9-1.6c0.7,0,1.1-0.1,1.4,0
	C489.8,699.1,492.4,697.5,492.3,700.3z M469,700c0.1,1.7-1.2,1.8-2.4,1.8c-1,0-2.1,0.2-3,0c-1.8-0.3-5.1,1.2-5.1-1.4
	c-0.1-3.5,3.5-0.8,4.9-1.8c1.3,0,2.4,0,3.4,0C467.7,698.7,468.9,698.7,469,700z M447.3,700.2c0.1,2.1-1.9,1.5-3.1,1.7
	c-0.9,0.1-1.7,0-2.6,0c-0.9,0-1.7,0-2.6,0c-1.2,0-2.6,0-2.5-1.8c0.1-1.4,1.4-1.3,2.4-1.3c1.7-0.1,3.5-0.1,5.2,0
	C445.3,698.8,447.3,698,447.3,700.2z M425.6,700c0.1,3.4-3.5,1-5.2,2c-1.8-0.9-5.1,1.1-5.1-1.8c0-2.8,3.3-1.4,5.1-1.4
	C422.1,698.8,425.5,697.5,425.6,700z M404.7,700.2c0,3.4-3.8,0.9-5.3,1.8c-1.1,0-1.8,0.1-2.4,0c-1.3-0.2-3.5,0.9-3.5-1.6
	c0.1-2.5,2.3-1.2,3.5-1.5c0.6-0.2,1.4-0.2,2,0C401,699.3,404.6,697.6,404.7,700.2z M357.6,704.7c-0.3,2.1-0.7,4.3-1.1,6.5
	c-0.2,1-0.4,2.1-1.9,1.8c-1.3-0.3-1.3-1.3-1.1-2.4c0.3-2,0.5-4.1,0.9-6.1c0.3-1.5-0.7-4.2,1.8-4C358.8,700.5,357,703.1,357.6,704.7z
	 M350.1,675.9c0.9-0.4,1.7,0,2.1,0.9c1.3,3,2.5,6,3.3,7.9c0.3,1.9,0.2,2.5-0.6,2.8c-1,0.4-1.7,0-2-0.9c-1.1-2.9-2.2-5.7-3.3-8.6
	C349.1,677.1,349.1,676.3,350.1,675.9z M345.9,497.6c0-3.4,3.8-1.1,5.7-1.8c0.3-0.1,0.7-0.1,1,0c1.6,0.4,4.5-1,4.4,1.7
	c-0.1,2.6-3,1-4.5,1.5c-0.3,0.1-0.7,0-1.4,0C349.6,498.2,346,500.4,345.9,497.6z M369.1,497.2c0-2.6,3.7-0.9,5.7-1.4
	c0.7-0.1,1.4-0.1,2.1,0c1.3,0.2,3.6-0.7,3.4,1.8c-0.2,2.1-2.2,1-3.4,1.3c-0.7,0.1-1.4,0-2.5,0C372.9,497.9,369.1,500.6,369.1,497.2z
	 M392.1,497.3c0.1-2.5,2.7-1.2,4.2-1.5c0.5-0.1,1,0,1.5,0c0.9,0,1.7-0.1,2.6,0c1.3,0.1,3.2-0.4,3.1,1.6c-0.1,1.9-2,1.4-3.3,1.5
	c-1.4,0.1-2.8,0.2-4.1,0C394.6,498.7,392,500,392.1,497.3z M413.1,497.1c-0.1-2.9,3.3-1.6,5-1.6c1.9,0.1,5.5-1.5,5.5,1.5
	c0,3.3-3.7,0.7-5.4,1.8C416.5,498,413.2,500,413.1,497.1z M435.1,497.1c0-1,0.5-1.6,1.5-1.6c1.2,0,2.4-0.2,3.6,0
	c2,0.4,5.7-1.5,5.7,1.8c-0.1,2.6-3.7,0.6-5.3,1.3c-1.6,0-2.7,0-3.9,0C435.6,498.6,435.1,498.1,435.1,497.1z M457.3,497.3
	c-0.1-1.8,1.3-1.7,2.4-1.8c1.9-0.1,3.7-0.1,5.6,0c1.2,0.1,3.1-0.5,3,1.7c-0.1,2.1-2,1.3-3.2,1.5c-0.8,0.1-1.7,0-2.5,0
	c-1,0-2,0-3.1,0C458.5,498.6,457.4,498.6,457.3,497.3z M481.6,497.1c0-2.4,2.3-1.4,3.7-1.6c0.7-0.1,1.4-0.2,2.1,0
	c1.7,0.6,5.1-1.5,5,1.6c-0.1,2.9-3.3,0.9-4.8,1.5c-0.9,0-1.6,0.1-2.3,0C483.9,498.4,481.6,499.5,481.6,497.1z M504,497.2
	c0-3.6,3.8-0.4,4.8-1.7c1.8,0,3,0,4.2,0c0.9,0,1.7,0.4,1.8,1.4c0.1,1.5-0.9,1.6-2,1.7c-1.2,0-2.4,0.2-3.6,0
	C507.3,498.3,504,499.8,504,497.2z M525.9,497c0.1-2.1,2-1.4,3.3-1.5c1.5-0.1,3.1-0.1,4.7,0c1.3,0,3.2-0.3,3.1,1.7
	c-0.1,2.1-2,1.3-3.3,1.4c-0.7,0.1-1.4,0-2.1,0c-0.9,0-1.7,0-2.6,0C527.7,498.6,525.8,499,525.9,497z M550.4,497.3
	c-0.1-3.6,3.8-0.8,5-1.9c1.5,0,2.4,0,3.2,0c1.3,0,2.5,0.1,2.3,1.9c-0.2,1.4-1.4,1.2-2.4,1.3c-0.9,0-1.8,0.2-2.6,0
	C554.1,498.2,550.4,500,550.4,497.3z M574.7,495.5c1,0,2.1-0.2,3.1,0c1.9,0.5,5.4-1.6,5.3,1.8c-0.1,2.6-3.6,0.5-4.7,1.3
	c-1.6,0-2.7,0-3.7,0c-1,0-2.2,0.1-2.4-1.3C572.1,495.5,573.5,495.6,574.7,495.5z M594.4,497c0.2-2,2-1.4,3.2-1.5
	c0.8-0.1,1.7-0.2,2.5,0c1.8,0.4,4.3-1.3,5.3,1.5c0.5,1.4-0.6,1.7-5.5,1.7c-0.9,0-1.7,0.1-2.6,0C596.2,498.4,594.2,499.2,594.4,497z
	 M613.1,497.4c-0.1-3.2,3.6-1.5,5.4-1.6c1.9,0,5.5-1.6,5.6,1.4c0.1,3.3-3.6,0.7-5.4,1.8C616.8,498.1,613.2,500.3,613.1,497.4z
	 M366.6,292.3c0.1-1.9,1.7-1.3,2.7-1.4c0.9-0.1,1.8-0.2,2.6,0c1.9,0.5,5.4-1.7,5.4,1.7c0,2.7-3.4,0.8-4.9,1.4c-1.1,0-2,0.1-2.8,0
	C368.3,293.9,366.5,294.6,366.6,292.3z M388.6,292.5c-0.1-1.4,1.1-1.5,2.1-1.6c1-0.1,2.1-0.2,3.1,0c2,0.5,5.7-1.5,5.7,1.7
	c0,2.6-3.7,0.8-5.3,1.4c-1.4,0-2.4,0-3.4,0C389.8,294,388.7,293.8,388.6,292.5z M407.1,291.9c0-3.6,4-0.6,5.3-1.8c1.6,0,2.7,0,3.7,0
	c1,0.1,2.2-0.1,2.4,1.4c0.2,1.9-1.2,1.7-2.4,1.8c-1,0-2.1,0.1-3.1-0.1C410.8,292.9,407.1,294.5,407.1,291.9z M430.2,291.7
	c0-2.9,2.9-1.1,4.5-1.6c0.3-0.1,0.7-0.1,1,0c1.9,0.7,5.7-1.7,5.6,1.8c-0.1,2.8-3.7,0.6-5.3,1.4c-0.6,0-1,0.1-1.3,0
	C433.1,292.8,430.2,294.6,430.2,291.7z M453.3,291.8c-0.1-3,3.3-1.6,5-1.6c2.1,0.1,6-1.6,6.1,1.3c0.1,3.1-3.9,1-5.9,1.8
	C456.7,292.7,453.4,294.6,453.3,291.8z M478.6,291.9c0-3.2,3.5-1.7,5.4-1.7c2,0,5.7-1.5,5.7,1.3c0,3.6-4,0.7-5.7,2
	C482.1,292.6,478.7,294.6,478.6,291.9z M501.8,291.8c-0.1-3.2,3.3-1.6,4.9-1.5c2.1,0.1,6-1.6,6.1,1.3c0.1,3.3-3.9,0.8-5.8,1.9
	C505.2,292.6,501.9,294.7,501.8,291.8z M524.9,291.8c-0.1-3.1,3.6-1.5,5.4-1.5c1.9,0,5.5-1.6,5.6,1.4c0.1,3.1-3.6,1-5.5,1.8
	C528.6,292.5,525,294.8,524.9,291.8z M550.2,291.9c0-3.2,3.5-1.6,5.4-1.6c2,0,5.7-1.4,5.7,1.3c0,3.5-3.9,0.7-5.7,1.9
	C553.7,292.7,550.2,294.5,550.2,291.9z M573.5,292c-0.1-3.6,3.6-1.6,5.6-1.7c1.9-0.1,5.4-1.7,5.4,1.4c0,3.4-3.7,0.3-5.1,1.9
	C577.2,292.5,573.5,294.8,573.5,292z M596.5,291.8c-0.1-3.2,3.6-1.5,5.4-1.5c1.9,0,5.6-1.6,5.6,1.4c0.1,3.3-3.6,0.8-5.4,1.8
	C600.2,292.6,596.6,294.7,596.5,291.8z M615.9,292.7c0-3.4,3.8-1.1,5.8-1.8c0.5-0.1,1-0.1,1.5,0c1.5,0.3,4.1-1,4,1.7
	c-0.1,2.6-2.7,1-4.2,1.4c-0.5,0.1-1,0-1.9,0C619.6,293.3,615.9,295.6,615.9,292.7z M639.5,292.8c0-3.4,3.8-1.2,5.8-1.8
	c0.3-0.1,0.7-0.1,1,0c1.6,0.4,4.6-1.1,4.5,1.7c-0.1,2.7-3,1-4.6,1.4c-0.3,0.1-0.7,0-1.3,0C643.3,293.4,639.6,295.4,639.5,292.8z
	 M642.3,93.4c0.5-0.1,1.1-0.1,1.5,0c1.9,0.5,4.7-1.5,5.7,1.6c0.4,1.2-0.8,1.6-5.7,1.6c-0.5,0-1,0.1-1.5,0c-1.5-0.3-4.1,0.9-4.1-1.6
	C638.2,92.3,640.8,93.8,642.3,93.4z M618.6,93.4c1.5-0.2,3.1-0.2,4.6,0c1.1,0.1,3.1-0.9,3.1,1.5c-0.1,2.2-1.9,1.4-3.2,1.6
	c-0.8,0.1-1.7,0-2.6,0c0,0,0,0,0,0c-0.7,0-1.4,0.1-2.1,0c-1.4-0.2-3.6,0.7-3.6-1.7C615,92.4,617.3,93.5,618.6,93.4z M597,93.4
	c2.2,0,4.5-0.1,6.7,0c1.1,0,2.7-0.6,2.8,1.3c0.2,2.2-1.6,1.8-2.9,1.8c-1,0.1-2.1,0-3.1,0c0,0,0,0,0-0.1c-1.2,0-2.4,0-3.6,0
	c-0.9,0-1.7-0.3-1.8-1.4C595,93.6,595.9,93.4,597,93.4z M578.3,93.2c1.7,0.8,5-1.2,5.1,1.6c0.1,2.8-3.2,1.7-5,1.6
	c-2.1-0.2-6,1.5-6-1.4C572.3,91.8,576.3,94.1,578.3,93.2z M552.5,93.4c0.8-0.1,1.7,0,2.6,0c0,0,0,0,0,0c0.7,0,1.4-0.1,2.1,0
	c1.2,0.2,3.2-0.7,3.1,1.6c-0.1,2-2,1.4-3.3,1.5c-1.5,0.1-3.1,0.1-4.6,0c-1.4-0.1-3.7,0.7-3.5-1.7C548.9,92.5,551.1,93.6,552.5,93.4z
	 M525.5,93.3c2.2,0,4.5-0.1,6.7,0c1,0.1,2.7-0.7,2.8,1.3c0.1,2.2-1.6,1.7-3,1.8c-1,0-2.1,0-3.1,0c-1.2,0-2.4,0-3.6,0
	c-0.9,0-1.7-0.4-1.8-1.4C523.4,93.6,524.3,93.3,525.5,93.3z M506.1,93.5c1.9,0,5.5-1.6,5.6,1.3c0.1,3.3-3.7,0.7-5.3,2
	c-2-1.2-5.7,1.3-5.7-1.9C500.6,91.8,504.2,93.5,506.1,93.5z M483.1,93.4c1.8,0,5.2-1.2,5.3,1.2c0.1,3.4-3.5,1.1-5.4,2.1
	c-1.9-1.1-5.8,1.5-5.7-2.1C477.4,92.2,481.1,93.4,483.1,93.4z M457.6,93c2.1,0.9,5.5-0.8,5.5,1.7c0,3.4-3.5,1.6-5.3,1.7
	c-2,0.1-5.7,1.4-5.7-1.3C452.2,91.2,456.2,94.8,457.6,93z M434,93.3c1.5,0,2.4-0.1,3.2,0c1.2,0.2,3.2-0.7,3,1.6
	c-0.1,2.1-2,1.3-3.3,1.5c-0.8,0.1-1.8,0.2-2.6-0.1c-1.9-0.5-5.5,1.6-5.4-1.7C429.2,91.7,432.9,94.5,434,93.3z M411.4,93
	c2.1,1,5.5-1,5.6,1.7c0.1,3-3.3,1.6-5,1.6c-2.1-0.1-6.1,1.4-6.1-1.4C405.8,91.4,409.9,94.7,411.4,93z M390.5,93.4
	c0.8-0.2,1.7,0,2.6,0c0.7,0,1.4-0.2,2.1,0c1.3,0.3,3.6-1,3.5,1.6c-0.1,2.4-2.3,1.4-3.7,1.5c-1.5,0.1-3.1,0.1-4.6,0
	c-1.3-0.1-3.1,0.5-3-1.7C387.4,92.5,389.4,93.6,390.5,93.4z M369.7,93.1c2.2,0.7,5.6-0.8,5.7,1.5c0.1,3.3-3.4,1.8-5.3,1.7
	c-2-0.1-5.8,1.6-5.8-1.7C364.3,92,368.1,94.3,369.7,93.1z M354.4,148.6c0-3,1.2-4.8,4.3-4.4c8.4,1,16.9,0.1,25.3,0.6
	c20.2-0.6,40.4-0.8,60.6,0.1c0.7,0,1.4,0,2.1,0c11.1-1.1,22.2-0.6,33.3-0.3c15.2,0,30.4,0,45.5,0c0.7,0,1.4,0,2.1,0
	c7.8,0,15.5-0.1,23.3-0.1c6.1,0,6.2,0.2,4.3,6.1c-0.3,1-0.6,2-0.8,3c1.2-1.4,2,4,3.3,0.2c0-0.2,0-0.4,0-0.5c1.3-2.9-0.5-7.5,2.1-8.9
	c2.4-1.3,6.2,0.1,9.4,0.3c3.7-0.3,7.3,0,10.9-1.7c2.7-1.3,5.7-0.5,7.9,1.9c0.3,0,0.6,0,0.9,0c20.2-0.1,40.4-0.3,60.6-0.3
	c3.5,0,7.2-1,10.6,1c0.1,24.5,0.2,49,0.3,73.5c0,5.9-0.1,11.7,0,17.6c0,2.8-1.1,4.1-3.9,4c-18.5-0.2-36.9,0.6-55.4-0.5
	c-1.3,0.7-2.6,0-3.9-0.1c-0.3,0.1-0.6,0.3-0.9,0.5c-1.1,0.7-2.3,0.6-3.4,0.2c-2,0-4,0-6,0c-0.8,0-1.6,0-2.3,0
	c-9.8-0.1-19.6-0.2-29.5-0.3c-30.8,0.1-61.6,0.2-92.4,0.3c-0.8,0-1.7-0.3-2.5-0.4c-1.5,0.7-2.9,0.2-4.3-0.3
	c-10.7,1.6-21.5,0.9-32.2,0.3c-21.9,0.9-43.9,0.2-65.8,0.4c-2.7,0-3.5-1.4-3.5-3.9C354.4,207.4,354.4,178,354.4,148.6z M355.3,292.4
	c0,2.2-1.9,1.4-3.1,1.6c-0.8,0.1-1.7,0-2.5,0c-1,0-2,0-3.1,0c-1,0-2.2,0-2.4-1.3c-0.2-1.7,1.2-1.8,2.4-1.8c1.9,0,3.7-0.1,5.6,0
	C353.5,290.9,355.3,290.3,355.3,292.4z M346.5,93c2.1,1,5.5-0.9,5.5,1.6c0.1,3.4-3.5,1.6-5.3,1.7c-2,0.1-5.7,1.5-5.7-1.3
	C341.1,91.1,345.1,94.9,346.5,93z M331.8,497.2c0,3.2-3.6,1.5-5.5,1.6c-2,0.1-5.8,1.3-5.7-1.3c0.1-3.6,4-0.5,5.6-2
	C328.3,496.4,331.8,494.5,331.8,497.2z M305.5,579.5c0,1.6,0,2.8,0,4c0,1.3-0.7,1.9-1.9,1.8c-1.2-0.1-1.2-1.1-1.2-1.9
	c0-1.2-0.2-2.4,0-3.6c0.3-1.8-1.2-5.1,1.4-5.2C307.3,574.5,304.6,578.1,305.5,579.5z M305.5,558.1c0,1.2,0,2.1,0,2.9
	c0,1.1-0.1,2.2-1.5,2.2c-1.4,0.1-1.7-0.9-1.7-2.1c0-0.9-0.2-1.8,0-2.6c0.6-2-1.6-5.8,1.7-5.8C306.9,552.8,304.8,556.5,305.5,558.1z
	 M303.9,591.9c3.3,0,0.8,3.9,1.9,5.7c-0.8,1.9,1.1,5.2-1.6,5.2c-3.3,0-1.6-3.5-1.6-5.4C302.6,595.6,301,591.9,303.9,591.9z
	 M304.2,622c-2.9,0-1.6-2.5-1.7-3.9c-0.1-1.2-0.7-3.2,1.3-3.2c2.8,0,1.3,2.5,1.8,3.9C305.3,619.9,306.4,622,304.2,622z M302.4,672.8
	c15.2,0,27.2,12,27.2,27.3c0,15-11.9,27-26.9,27.1c-15.2,0.1-27.4-11.9-27.5-27.1C275.1,684.9,287.1,672.8,302.4,672.8z M318,93.3
	c1,0,2.1-0.2,3.1,0c2,0.5,5.8-1.5,5.8,1.7c0,2.8-3.8,0.5-5.2,1.4c-1.6,0-2.6,0-3.6,0c-1.3,0-2.5-0.1-2.4-1.9
	C315.8,93.1,317,93.4,318,93.3z M312.6,646.9c2.7,0.7,5.4,1.5,8,2.2c1.2,0.3,1.8,1.1,1.3,2.3c-0.4,1-1.3,0.9-2.2,0.7
	c-2.7-0.7-5.3-1.3-8-2c-1-0.2-2.2-0.5-2-1.8C310,646.3,311.6,647.4,312.6,646.9z M308.7,497.6c-0.1,2.3-2.4,1.1-3.8,1.3
	c-0.7,0.1-1.4,0-2.1,0c0,0,0,0,0,0c-1,0-2.1,0-3.1,0c-1.2,0-2.6,0.2-2.5-1.6c0.1-1.5,1.3-1.3,2.3-1.4c1.7-0.1,3.5-0.2,5.2,0
	C306.2,495.9,308.8,494.9,308.7,497.6z M301.2,161.3c0.1-1.2-0.5-3.2,1.7-3.1c2,0.1,1.4,2,1.5,3.3c0.1,1.7,0.1,3.4,0,5.2
	c-0.1,1.3,0.5,3.2-1.4,3.3c-2.5,0.1-1.4-2.2-1.7-3.5c-0.1-0.8,0-1.7,0-2.6C301.2,163,301.1,162.2,301.2,161.3z M302.6,182.2
	c3.3,0,1.2,3.8,1.7,5.8c0.1,0.5,0.1,1,0,1.5c-0.3,1.5,1,4.1-1.7,4c-2.6-0.1-1-2.7-1.4-4.2c-0.1-0.5,0-1,0-1.9
	C301.9,185.9,299.8,182.2,302.6,182.2z M302.9,233.8c-2.1,0-1.4-1.9-1.5-3.1c-0.1-0.8,0-1.7,0-2.6c0-0.9,0-1.7,0-2.6
	c0-1.2,0.1-2.6,1.8-2.4c1.4,0.2,1.3,1.4,1.3,2.4c0,1.7,0.1,3.4,0,5.1C304.4,232,305,233.8,302.9,233.8z M303.1,245.3
	c2.7,0.1,0.7,3.4,1.4,4.9c0,1.5,0,2.7,0,4c0,1-0.5,1.6-1.6,1.6c-1.1,0-1.5-0.6-1.5-1.6c0-1.2-0.3-2.5,0-3.6
	C301.8,248.7,299.8,245.2,303.1,245.3z M304.5,273.6c0,0.8,0.1,1.3,0,1.8c-0.3,1.5,1,4-1.6,4c-2.6,0-1.2-2.6-1.6-4.1
	c-0.1-0.5-0.1-1.1,0-1.5c0.6-1.7-1.5-4.9,1.6-4.9C306,269,303.7,272.3,304.5,273.6z M303,347.2c-1.9,0.1-1.6-1.3-1.7-2.4
	c0-0.8-0.2-1.7,0-2.5c0.5-1.9-1.5-4.6,1.4-5.7c1.4-0.5,1.7,0.5,1.7,5.5c0,0.8,0,1.7,0,2.5C304.4,345.6,304.8,347,303,347.2z
	 M304.5,318.3c0,0.9,0,1.7,0,2.6c0,1.2,0,2.6-1.8,2.4c-1.4-0.1-1.4-1.3-1.4-2.3c0-1.7-0.1-3.4,0-5.1c0.1-1.2-0.6-3.1,1.5-3.2
	c2.1,0,1.5,1.8,1.6,3.1C304.5,316.6,304.5,317.4,304.5,318.3z M303,301.4c-2.3,0.1-1.5-1.8-1.6-2.9c-0.1-0.8,0-1.7,0-2.5
	c0,0,0,0,0,0c0-1,0-2,0-3.1c0-1,0-2.1,1.4-2.2c1.4,0,1.7,0.9,1.7,2c0,1.9,0,3.7,0,5.6C304.4,299.5,305.1,301.3,303,301.4z
	 M302.5,443.6c-0.1-1.2-0.7-3.3,1.4-3.2c2.7,0.1,1.3,2.6,1.7,4c-0.3,1.2,0.7,3.3-1.5,3.2C301.4,447.5,302.6,445,302.5,443.6z
	 M305.6,422.7c0,1.2,0.1,2.1,0,2.9c-0.1,1.2,0.5,3.1-1.7,3c-1.7-0.1-1.4-1.6-1.5-2.8c0-0.9-0.2-1.8,0-2.6c0.5-2-1.6-5.8,1.7-5.8
	C307,417.5,304.8,421.2,305.6,422.7z M305.5,404.1c0.1,0.3,0.1,0.7,0,1c-0.6,1.9,1.5,5.5-1.6,5.5c-3.1,0-0.7-3.7-1.5-5.2
	c0-0.7-0.1-1,0-1.4c0.4-1.5-1-4.1,1.6-4.1C306.6,400,305.1,402.6,305.5,404.1z M305.5,383c0,1.3,0,2,0,2.7c-0.1,1.3,0.5,3.2-1.6,3.1
	c-2.1-0.1-1.4-2-1.5-3.2c-0.1-0.7-0.1-1.4,0-2.1c0.4-1.8-1.3-5.2,1.4-5.2C307.5,378.2,304.1,382.1,305.5,383z M305.5,361
	c0,1.6,0,2.6,0,3.6c0,1.3,0,2.5-1.8,2.3c-1.5-0.1-1.3-1.3-1.3-2.2c0-1-0.2-2.1,0-3c0.5-1.8-1.6-5.3,1.7-5.2
	C306.9,356.5,304.6,359.9,305.5,361z M302.8,211.8c-2.9,0-0.4-3.5-1.4-4.6c0-1.4-0.1-2.2,0-3.1c0.1-1.2-0.6-3.1,1.7-2.9
	c1.7,0.1,1.4,1.6,1.5,2.7c0,0.9,0.2,1.8,0,2.5C303.9,208.3,306.1,211.8,302.8,211.8z M304.5,140.6c-0.9,1.9,1.3,5.6-1.8,5.6
	c-3.1,0-1.5-3.6-1.4-5.5c0.1-2-1.7-5.8,1.6-5.8C305.7,134.9,303.7,138.6,304.5,140.6z M298.5,93.2c1.9,0.7,5.3-1,5.3,1.4
	c0.1,3.3-3.4,1.7-5.2,1.7c-2.1,0-6,1.5-5.9-1.5C292.7,91.9,296.6,94.1,298.5,93.2z M294.1,647c1.4,0.1,2.7-0.5,3,1
	c0.3,1.3-0.5,1.8-1.7,2c-2.8,0.7-5.6,1.4-8.4,2.1c-0.8,0.2-1.7,0.3-2.1-0.7c-0.5-1.3,0.2-1.9,1.3-2.2
	C289,648.5,291.8,647.7,294.1,647z M285.3,497.3c0,3.2-3.9,0.8-5.8,1.8c-1.7-1-5,1.3-5.1-1.6c-0.1-3.1,3.2-1.6,5-1.6
	C281.4,495.9,285.3,494.5,285.3,497.3z M274.8,93.3c0.2-0.1,0.4-0.1,0.5,0c1.8,0.6,5.1-1.2,5.1,1.4c0,3.5-3.6,0.9-5.3,1.9
	c-2-0.9-5.6,1.2-5.7-1.7C269.3,91.7,273,94,274.8,93.3z M260.1,497.6c0,2.6-3.8,0.7-5.8,1.5c-1.8-0.9-5.4,1.5-5.3-1.9
	c0.1-2.4,3.5-1.3,5.3-1.2C256.4,496,260.2,494.4,260.1,497.6z M235.7,645.7c-1.8,2.4-3.9,3.5-7,3.5c-24.3-0.1-48.7-0.1-73,0
	c-4.2,0-5.4-1.5-5.3-5.4c0.2-7.2,0-14.5,0-21.8c-0.5-0.6-0.4-1.3,0-1.9c0-4.9,0-9.7,0-14.6c-1.1-11.1-0.9-22.2,0-33.3
	c0-2.8,0-5.6,0-8.3c-0.9-2-0.9-3.9,0.1-5.9c0.4-3-0.7-6.1,1.2-8.9c7.2-1.1,14.3-1.4,21.5,0.3c0.4,0,0.7,0.1,1.1,0.1
	c1.6-0.2,3.1-0.5,4.7-0.7c7.2-0.2,14.5-1.5,21.7,0.8l0,0.1c4.3,0.1,8.7-1.5,12.6,1.5c0.3-1.9,1.3-2.4,3.2-2.4c11,0.1,21.9,0,32.9,0
	c4.7,0,4.1,2.3,2.3,5.1c0,5.8-0.1,11.6-0.1,17.5c0,11,0,22.1,0.1,33.1c0,0.4,0,0.7,0,1.1c0,6.9,0,13.8,0.2,20.7
	c0,2.4-0.6,4.2-2.6,5.8C244,636,239.5,640.6,235.7,645.7z M215.3,700.4c-0.1,2.4-2.3,1.3-3.6,1.6c-0.7,0.1-1.4,0.2-2,0
	c-2-0.5-5.6,1.4-5.6-1.4c0-3.8,4-0.4,5.1-1.8c1.3,0,2-0.1,2.7,0C213.1,699.1,215.3,697.9,215.3,700.4z M198.9,700.9
	c0,3.3-3.9,0.8-5.8,1.8c-1.9-1-5.5,1.3-5.6-1.7c-0.1-3.2,3.5-1.5,5.4-1.5C195,699.6,198.9,698,198.9,700.9z M166.9,702.5
	c-1.2-0.2-3.2,0.5-3.1-1.6c0.1-1.9,2.1-1.3,3.3-1.4c1.5-0.1,3.1-0.2,4.6-0.1c1.4,0.1,3.7-0.7,3.6,1.6c-0.1,2.1-2.4,1.3-3.8,1.5
	c-0.7,0.1-1.4,0-2.1,0c0,0,0-0.1,0-0.1C168.6,702.5,167.8,702.6,166.9,702.5z M160.1,496.4c0.1-1.4,1.4-1.3,2.3-1.3
	c2.2-0.1,4.4-0.1,6.6,0c1.1,0,2.6-0.4,2.7,1.5c0,1.7-1.3,1.7-2.5,1.7c-1.2,0-2.4,0-3.6,0c-1,0-2,0-3.1,0
	C161.4,498.1,160,498.1,160.1,496.4z M184.2,496.7c-0.1-3.2,3.5-0.9,5.4-1.6c0.2-0.1,0.4-0.1,0.5,0c1.8,0.6,5.1-1.3,5.1,1.4
	c0,3.5-3.6,0.9-5.3,1.9C187.9,497.5,184.3,499.7,184.2,496.7z M202.7,497.5c0-3.3,3.5-1.6,5.4-1.6c2,0,5.7-1.4,5.7,1.3
	c-0.1,3.5-4,0.6-5.7,1.9C206.1,498.3,202.7,500.2,202.7,497.5z M225.9,497.3c0-3.1,3.6-1.4,5.5-1.4c1.9,0,5.5-1.7,5.5,1.4
	c0,3.2-3.7,0.6-5.4,1.7C229.5,498,225.9,500.5,225.9,497.3z M250.8,700.4c2.2-0.3,1.7,1.6,1.8,2.9c0.3,2.4,0.6,4.8,0.9,7.2
	c0.1,1.1,0.2,2.2-1.1,2.5c-1.3,0.3-1.7-0.8-1.9-1.9c-0.4-2.6-0.8-5.1-1.1-7.3C249.6,702.3,249.2,700.7,250.8,700.4z M252.4,687.8
	c-1.1-0.4-1.1-1.3-0.8-2.1c1-2.9,2.1-5.8,3.3-8.6c0.3-0.8,1-1.4,2-1c0.8,0.3,1,0.9,0.9,1.2c-1.3,3.6-2.4,6.8-3.7,10
	C253.9,687.8,253.1,688,252.4,687.8z M247.3,93.3c0.8-0.1,1.7,0,2.6,0c0.7,0,1.4-0.2,2.1,0c1.3,0.4,3.7-1,3.5,1.6
	c-0.1,2.4-2.3,1.3-3.7,1.5c-1.5,0.2-3.1,0.1-4.6,0c-1.3-0.1-3.1,0.4-3.1-1.7C244.2,92.6,246.1,93.5,247.3,93.3z M226.5,93.3
	c0.2-0.1,0.4-0.1,0.5,0c1.8,0.6,5.2-1.1,5.2,1.4c0,3.4-3.6,0.8-5.4,1.9c-1.9-0.9-5.6,1.3-5.7-1.7C221,91.7,224.6,94,226.5,93.3z
	 M197.7,94.7c0.2-2.3,2.4-1.1,3.8-1.4c0.7-0.1,1.4,0,2.4,0c1.4,1,5.1-1.8,5,1.6c-0.1,2.9-3.7,1-5.6,1.5c-0.6,0.2-1.4,0.1-2.1,0
	C199.8,96.2,197.5,97.2,197.7,94.7z M180.1,93.3c0.7-0.1,1.4,0,2.4,0c1.5,0.7,5.3-1.4,5.3,1.4c0,3.2-3.8,1.2-5.9,1.8
	c-0.5,0.1-1,0.1-1.5,0c-1.5-0.3-4,1-4-1.7C176.4,92.4,178.8,93.7,180.1,93.3z M158.7,93.1c1.8,1,5.4-1.3,5.4,1.7
	c0,3.2-3.6,1.5-5.4,1.5c-2,0-5.8,1.7-5.7-1.7C153,91.9,156.7,94.1,158.7,93.1z M150.1,153.9c0-1.5,0.1-3,0.1-4.5
	c-0.1-5.4,3.7-8,9.5-5.9c2.6,0.9,5,1.1,7.6,1.1c22.5,0.1,45.1,0.1,67.6,0.1c3.8,0,7.6,0.2,11.3,0c3.8-0.2,5.8,0.9,5.5,5.1
	c-0.3,4.4-0.2,8.9-0.2,13.4c0,39.1,0,78.2,0,117.3c0,11.1,0,22.3,0,33.4c0,27,0,53.9,0,80.9c0,15,0.7,30.1-0.4,45.1
	c0.5,0.6,1,1.1,1.4,1.7c0.6,3.1-0.1,4.6-3.8,4.5c-11.6-0.3-23.3-0.3-34.9-0.4c-0.7,0.1-1.5,0.1-2.2,0.2c-3.3,0-6.6,0-9.9,0
	c-15.9,0.2-31.8,0.3-47.7,0.5c-3.1,0-3.6-1.5-3.6-4.2c0.1-17.5,0.1-34.9,0.1-52.4c-0.5-0.8-0.5-1.7,0-2.5c0-0.5,0-1.1,0-1.6
	c-0.2-1.4-0.6-2.7-0.6-4.1c0-30.6,0-61.2,0-91.8c0.1-3.6,0.2-7.2,0.3-10.7c0-1.5,0-2.9,0.1-4.4c-0.8-7.2-0.3-14.5-0.4-21.7
	c0-29.9-0.1-59.7,0.1-89.6C150,160.2,148.1,157,150.1,153.9z M145.5,495.1c1.1,0,2.7-0.2,2.8,1.5c0.1,1.7-1.4,1.6-2.6,1.7
	c-1.2,0-2.4,0-3.6,0c0,0,0,0,0,0c-1,0-2.1,0.1-3.1,0c-1.2-0.1-2.6,0-2.5-1.8c0.1-1.4,1.4-1.3,2.4-1.3C141,495,143.2,495,145.5,495.1
	z M129.2,94.6c0.1-2.7,3.8-0.3,5.5-1.6c2,1.2,5.6-1.3,5.7,1.9c0,3.2-3.6,1.5-5.5,1.5C132.9,96.3,129.1,98.1,129.2,94.6z
	 M138.6,905.8c-0.6,0-1,0.1-1.3,0c-1.6-0.4-4.6,1-4.6-1.6c0-2.7,3-1.1,4.6-1.5c0.3-0.1,0.7-0.1,1,0c2,0.7,5.8-1.6,5.7,1.8
	C144,907,140.3,905.2,138.6,905.8z M146.3,702.5c-0.7,0-1.1,0.1-1.4,0c-1.6-0.4-4.6,1-4.6-1.5c0-2.5,2.9-1.2,4.6-1.5
	c0.3-0.1,0.7-0.1,1,0c1.9,0.5,5.5-1.4,5.5,1.5C151.5,704,147.8,701.8,146.3,702.5z M150.7,853.6c0-0.9,0-1.7-0.1-2.6
	c-0.1-1.1-0.2-2.3-0.2-3.4c0-0.4,0-0.8,0-1.2c0-2.1,0-4.1,0-6.2c-1.2-4.8-0.8-9.7,0-14.5c0-1.5,0-2.9,0-4.4c-1-5.5-0.9-11,0-16.4
	c0.1-17.3,0.2-34.6,0.3-51.9l-0.1,0c0.1-0.3,0.1-0.7,0.2-1c0.4-0.1,0.8-0.2,1.1-0.2c1.8-0.9,3.7-0.8,5.6-0.8c24,0,47.9,0,71.9,0
	c1.4,0,3.1-0.7,4.2,1.1c0.6,0.9,1.3,1.8,1.9,2.7c2.7,0.5,5.5-0.5,8.1,0.8c-0.1,0.4-0.2,0.9-0.3,1.3c0.2,1.1,0.4,2.3,0.6,3.4
	l-0.1-0.1l0,0.1c0,1.3,0.1,2.6,0.1,3.9c6.6,3.7,8.1,9.4,8,16.8c-0.5,23.9-0.3,47.8-0.3,71.8c0,0.3,0.1,0.6,0,0.9
	c-1.5,1.2-3.2,1.1-4.9,1.1c-30.5,0-61.1,0-91.6,0C153.5,854.6,151.8,855.2,150.7,853.6z M162.3,906.1c-2.1-1.1-5.8,1.2-5.9-1.8
	c-0.1-3.2,3.6-1.5,5.5-1.5c2,0,5.9-1.6,5.9,1.6C167.7,907.4,163.9,904.7,162.3,906.1z M191.5,904.5c-0.1,2.1-2.1,1.1-3.3,1.3
	c-0.7,0.1-1.4,0-2.5,0c-1.5-0.9-5.5,1.7-5.5-1.5c-0.1-3,3.9-1,5.9-1.6c0.6-0.2,1.4-0.1,2,0C189.5,902.9,191.7,901.9,191.5,904.5z
	 M205.4,906c-1.9-1.1-5.5,1.4-5.6-1.7c0-3.1,3.6-1.5,5.5-1.5c1.9,0,5.5-1.8,5.5,1.4C210.8,907.5,207.2,904.9,205.4,906z
	 M230.6,905.8c-0.5,0.1-1,0-1.9,0c-1.6-1-5.6,1.6-5.6-1.7c0.1-2.8,4-0.9,6.2-1.4c0.3-0.1,0.7-0.1,1,0c1.5,0.4,4-1,4,1.7
	C234.3,906.7,231.9,905.5,230.6,905.8z M252.2,905.8c-0.7,0-1.1,0.1-1.4,0c-1.6-0.5-4.5,1.3-4.5-1.5c0-2.9,2.9-1.1,4.5-1.6
	c0.3-0.1,0.7-0.1,1,0c1.9,0.6,5.5-1.5,5.5,1.6C257.4,907.3,253.7,905,252.2,905.8z M264.3,735.2c-0.8,0.8-1.7,0.3-2.2-0.3
	c-1.9-2.6-3.7-5.3-5.5-8c-0.4-0.6-0.4-1.3,0.1-1.9c0.5-0.5,1.3-0.8,1.8-0.2c2.2,3,4.3,6.1,6.5,9.2
	C264.8,734.5,264.6,734.9,264.3,735.2z M264.1,665.3c-1.6-1.9,1.2-2.8,2.2-3.9c1.5-1.6,3.4-2.9,5-4.4c1.3-1.1,2.1-0.6,2.8,0.7
	c0,1-0.7,1.5-1.4,2c-1.6,1.3-3.1,2.8-4.7,4C266.8,664.6,265.9,667.5,264.1,665.3z M282.6,904.5c-0.2,2.1-2.2,1-3.3,1.3
	c-0.7,0.1-1.4,0-2.4,0c-1.5-0.9-5.4,1.7-5.3-1.8c0-2.6,3.7-0.8,5.7-1.3c0.6-0.2,1.4-0.1,2,0C280.6,902.9,282.9,901.9,282.6,904.5z
	 M285.1,749.1c-0.3,0.8-0.8,1.7-1.8,1.2c-3.1-1.5-6.1-3.1-9.1-4.7c-0.9-0.5-1-1.3-0.3-2.1c0.5-0.6,1-0.8,1.7-0.4
	c2.9,1.5,5.8,3,8.7,4.5C284.9,747.9,285.4,748.3,285.1,749.1z M299.9,905.7c-1.8,0.1-5.2,1.1-5.2-1.3c0-3.5,3.7-0.6,5.1-2
	c2.2,1,6-1.1,5.9,1.7C305.7,907.4,301.9,905.5,299.9,905.7z M303.8,842.3c-3.5,0.1-0.6-3.4-1.7-4.3c0-1.1-0.1-1.6,0-2.1
	c0.2-1.6-0.7-4.2,1.7-4.1c2.5,0,1.1,2.7,1.5,4.2c0.1,0.5,0.1,1.1,0,1.5C304.8,839.2,306.3,842.2,303.8,842.3z M303.8,800.6
	c-1.9,0.1-1.5-1.4-1.6-2.5c-0.1-1.2,0-2.4,0-3.6c0,0,0,0,0,0c0-1,0-2,0-3.1c0-1.2,0-2.5,1.8-2.4c1.4,0.1,1.4,1.2,1.4,2.3
	c0,2.2,0.1,4.4,0,6.6C305.2,799,305.6,800.5,303.8,800.6z M303.4,809.7c3.4-0.1,1,3.5,1.7,4.8c0,1.5,0,2.5,0,3.6
	c0,1.3-0.1,2.5-1.9,2.3c-1.5-0.2-1.1-1.4-1.2-2.4c-0.1-1-0.2-2.1,0-3.1C302.4,813.1,300.9,809.8,303.4,809.7z M303.7,853.9
	c3,0.1,0.5,3.8,1.5,5c0,1.3,0,2,0,2.7c-0.1,1.3,0.3,3.1-1.7,3c-1.7-0.1-1.3-1.7-1.4-2.8c-0.1-0.8-0.2-1.8,0-2.5
	C302.7,857.3,300.4,853.8,303.7,853.9z M303.3,754.5c-1.8-1.4-5.9,1.4-5.8-2.1c0.1-2.9,3.7-0.7,5.6-1.1c0.2,0,0.4,0,0.5,0
	c2,0.5,5.8-1.9,5.8,1.4C309.5,755.6,305.5,753.4,303.3,754.5z M325.4,905.8c-1.5,0.2-3.1,0.1-4.6,0c-1.2-0.1-3.2,0.7-3.1-1.6
	c0.1-2.1,2-1.4,3.2-1.5c0.8-0.1,1.7,0,2.6,0c0.7,0,1.4-0.1,2.1,0c1.4,0.2,3.7-0.7,3.6,1.7C329,906.7,326.7,905.6,325.4,905.8z
	 M333.3,745.4c-3.1,1.8-6.3,3.6-9,5.1c-1.3-0.1-1.9-0.4-2.1-1.2c-0.2-0.8-0.1-1.3,0.6-1.7c3-1.6,6-3.2,9.1-4.8
	c0.7-0.4,1.3,0.2,1.7,0.8C334,744.3,333.9,745,333.3,745.4z M340.5,665.2c-2.3-2.1-4.7-4-7-6.1c-1.3-1.2-0.6-2.2,0.7-2.7
	c1-0.4,9.1,6.6,9.2,8c-0.2,0.3-0.3,0.8-0.7,1.1C342,666.1,341.3,666,340.5,665.2z M342.6,735c-0.4-0.6-0.5-1.2,0-1.8
	c1.9-2.7,3.7-5.4,5.6-8c0.4-0.6,1.1-0.8,1.8-0.4c0.7,0.3,1.1,0.8,0.9,1.8c-1.9,3-3.8,6.3-6.5,9C343.9,736,343.1,735.6,342.6,735z
	 M348.2,906c-1.8-0.9-5.1,1.2-5.2-1.7c-0.1-3,3.3-1.6,5-1.5c2.1,0.1,6-1.6,6.1,1.5C354.1,907.4,350.1,904.9,348.2,906z M375.1,905.8
	c-1,0-2.1,0.2-3.1,0c-2-0.6-5.9,1.6-5.8-1.7c0-2.7,3.8-0.4,5.1-1.3c1.6,0,2.7,0,3.7,0c1.3,0,2.6,0.1,2.4,1.8
	C377.4,905.9,376.2,905.8,375.1,905.8z M395.6,905.7c-2.1,0-6,1.4-6.1-1.4c0-3.5,4-0.4,5.6-2c2.1,1,5.4-1,5.4,1.8
	C400.6,907.1,397.3,905.7,395.6,905.7z M414.3,905.8c-1.6,0-2.7,0-3.7,0c-1.2,0-2.6,0-2.4-1.8c0.1-1.5,1.4-1.2,2.4-1.3
	c1,0,2.1-0.2,3.1,0c2,0.5,5.8-1.7,5.7,1.8C419.3,907.3,415.6,904.8,414.3,905.8z M440.3,905.8c-1.2,0.1-2.4,0-3.6,0c-1,0-2,0-3.1,0
	c-1.2,0-2.6,0-2.4-1.8c0.1-1.4,1.4-1.3,2.3-1.3c2.2-0.1,4.4,0,6.6,0c1.2,0,2.6-0.2,2.7,1.5C442.9,906,441.4,905.7,440.3,905.8z
	 M460.8,905.8c-1.6,0-2.7,0-3.7,0c-1.2,0-2.7,0.2-2.5-1.7c0.1-1.3,1.3-1.4,2.3-1.4c1,0,2.1-0.2,3.1,0c2.1,0.5,5.9-1.4,5.9,1.7
	C465.8,907.2,462,904.8,460.8,905.8z M487.5,905.7c-1.5,0.2-3.1,0.2-4.6,0c-1.2-0.1-3.1,0.7-3.1-1.5c0-2.2,2-1.4,3.2-1.5
	c0.8-0.1,1.7,0,2.6,0c0,0,0,0,0,0c0.7,0,1.4-0.1,2.1,0c1.3,0.3,3.6-0.8,3.6,1.6C491.1,906.7,488.9,905.6,487.5,905.7z M508.8,905.8
	c-0.9,0-1.4,0.1-1.9,0c-1.4-0.4-4,1.1-4-1.6c0-2.6,2.6-1.2,4.1-1.5c0.5-0.1,1-0.1,1.5,0c1.9,0.6,5.6-1.5,5.6,1.4
	C514.1,907.6,510.3,904.8,508.8,905.8z M534.4,905.8c-0.9,0.1-1.7,0-2.6,0c-0.7,0-1.4,0.1-2.1,0c-1.3-0.2-3.6,0.9-3.6-1.6
	c0.1-2.3,2.3-1.4,3.7-1.5c1.5-0.1,3.1-0.1,4.6,0c1.3,0.1,3.1-0.5,3.1,1.6C537.5,906.4,535.6,905.7,534.4,905.8z M556.9,905.8
	c-0.7,0-1.1,0.1-1.4,0c-1.4-0.5-4.1,1.2-4.1-1.5c0-2.6,2.6-1.3,4.1-1.6c0.3-0.1,0.7-0.1,1,0c2.1,0.6,6-1.4,5.9,1.6
	C562.5,907.5,558.5,904.8,556.9,905.8z M582.7,905.8c-0.8,0.1-1.7,0-2.6,0c-0.7,0-1.4,0.1-2.1,0c-1.3-0.2-3.6,0.9-3.5-1.6
	c0.1-2.5,2.3-1.3,3.7-1.4c1.5-0.2,3.1-0.1,4.6,0c1.2,0.1,3.1-0.6,3,1.6C585.8,906.6,583.9,905.6,582.7,905.8z M603.7,905.8
	c-1.5,0-2.5,0-3.5,0c-1.2-0.1-2.6,0-2.5-1.7c0.1-1.3,1.3-1.3,2.4-1.4c1,0,2.1-0.2,3.1,0c2.1,0.5,5.8-1.4,5.8,1.7
	C608.9,906.9,605.2,905.3,603.7,905.8z M621.8,905.8c-1.4,0-2.5,0-3.5,0c-1.2-0.1-2.6,0.1-2.4-1.7c0.1-1.5,1.4-1.3,2.3-1.3
	c1-0.1,2.1-0.2,3.1,0c2,0.5,5.8-1.6,5.8,1.8C627,907.2,623.3,905,621.8,905.8z M647.2,905.8c-0.8,0.1-1.7,0-2.6,0
	c-0.9,0-1.7,0.1-2.6,0c-1.2-0.1-3.2,0.5-3.1-1.7c0.1-2.1,2.1-1.4,3.3-1.4c1.7-0.1,3.5-0.1,5.2,0c1.3,0.1,3.2-0.4,3.1,1.7
	C650.4,906.5,648.4,905.6,647.2,905.8z M661.6,808.4c0,13.3,0,26.6,0,40c0,1.4,0.2,2.8-0.7,4c-0.1,0.3-0.3,0.5-0.6,0.6
	c-6.4,1.7-13,0.5-19.5,0.7c-1.9,1.1-4,0.8-6.1,0.8c-49.3,0-98.7,0.1-148,0.1c-1.9,0-3.8,0.3-5.5-1c-2-0.1-4-0.2-6-0.2
	c-4.2-0.1-8.4-0.2-12.6-0.4c-17.1,0.6-34.2-0.7-51.3,0.8c-1.8,0.9-3.7,0.8-5.6,0.8c-15.2,0-30.4,0-45.7,0c-1.5,0-3.1,0.2-4.5-0.8
	c-1.6-1.7-1.2-3.9-1.2-5.9c0-23.9,0.1-47.9-0.1-71.8c0-3.9,1.2-6.4,4.4-8.6c5.2-3.5,9.1-8.3,13.4-12.8c0.4-0.8,0.8-1.6,1.2-2.4
	c0.9-2.4,2.9-1.3,4.4-1.3c10.9-0.1,21.8,0,32.7,0c0.2-3.9,0.5-7.8,0.7-11.7c0-0.4,0.1-0.7,0.3-1c0.5-1.6,1.9-1.2,3-1.2
	c19.5,0,39,0,58.5,0c0.7,0,1.4,0.2,2,0.4c2,4.7,0,9.7,1,14.5c0.4,0,0.9,0,1.3,0c0-0.6-0.3-1.6,0.7-1.4c4.3,0.9,8.6,0,12.9,0.5
	c6.2,0.8,12.2-0.5,17.7-2.6c7.3-2.7,13-0.9,18.9,2.9c0.7-0.1,1.5-0.2,2.2-0.2c32.6-0.4,65.1-0.5,97.7,0.1c0.4,0,0.8,0,1.2,0.1
	c8.9-0.5,17.8-0.4,26.8,0c3.9-1.2,5.5-0.2,5.3,4.3c-0.4,11.5-0.3,23.1-0.4,34.6c0.1,4.6,0.3,9.2,0.4,13.8
	C661.8,805.3,661.6,806.9,661.6,808.4z M661.5,509.9c-1,0.1-1.6-0.6-1.8-1.5c-0.4-3.1-0.8-6.1-1.2-9.2c-0.1-0.9,0.2-1.7,1.3-1.8
	c1.4-0.1,1.7,0.8,1.8,1.9c0.2,2.7,0.6,5.5,0.9,8.2C662.7,508.6,663.1,509.8,661.5,509.9z M668,906.1c-1.9-1.2-5.6,1.4-5.5-2.1
	c0-2.6,3.5-1.4,5.2-1.3c2,0.1,5.8-1.6,5.8,1.6C673.5,907.2,669.7,904.9,668,906.1z M673.2,532.3c-1,0.8-1.6,0.2-2.1-0.4
	c-1.9-2.6-3.7-5.3-5.5-8c-0.8-1.2-0.1-1.9,0.8-2.2c1.3-0.2,1.6,0.7,2.1,1.3c1.6,2.2,3.1,4.5,4.7,6.7
	C673.8,530.6,674.3,531.3,673.2,532.3z M674.5,463.2c-1.8-0.6-2.6-1.6-1.4-2.7c2.3-2.3,4.8-4.4,7.3-6.5c1.3-1.1,3,0.4,2.5,0.9
	C680.3,457.9,677.3,460.6,674.5,463.2z M682.7,540.6c0.3-0.4,0.8-0.6,1.1-0.9c3.4,1.8,6.7,3.5,9.9,5.3c0.2,0.1,0.3,0.9,0.2,1.4
	c-0.2,0.7-0.8,1.1-1.6,0.9c-3.4-1.1-6.5-2.9-9.5-4.9C682.2,542,682.2,541.2,682.7,540.6z M692.8,906c-1.8-1-5.1,1.3-5.2-1.7
	c-0.1-3.2,3.3-1.5,5-1.5c2.1,0,6-1.4,6,1.4C698.6,907.6,694.6,904.7,692.8,906z M706.6,549.5c0.1-3.1,4.5,0.2,6.5-1.6
	c1.9,1.4,5.5-1.6,5.5,2c0,2.6-3.4,1.5-5.2,1.4C711,551.1,706.6,553,706.6,549.5z M714.3,836.9c-0.8,1.8,1.1,5.2-1.6,5.2
	c-3.3-0.1-1.4-3.5-1.5-5.4c-0.1-1.8-1.3-5.2,1.2-5.2C715.7,831.4,713.5,835,714.3,836.9z M714.1,859.2c0,1.2,0,2.1,0,2.9
	c0,1.2,0,2.6-1.7,2.5c-1.4-0.1-1.4-1.3-1.4-2.3c0-0.9-0.2-1.8,0-2.6c0.6-2-1.6-5.8,1.6-5.8C715.7,853.9,713.3,857.6,714.1,859.2z
	 M712.1,706.3c-3.1,0-1.5-3.3-1.5-5c0-2.1-1.5-6.1,1.5-6c3.3,0,0.6,4,1.8,5.9C712.9,702.9,715.1,706.2,712.1,706.3z M713.6,727.5
	c-0.1,1,0.1,2.2-1.4,2.3c-1.6,0-1.8-1.2-1.8-2.5c0-2,0-4.1,0-6.1c0-1.3-0.3-3.1,1.7-3c2.1,0.1,1.3,2,1.4,3.2c0.1,1,0,2,0,3.1
	C713.6,725.4,713.7,726.5,713.6,727.5z M712.1,672.1c3.4,0,0.3,3.8,2,5.2c-1.2,2.1,1.2,5.8-1.9,5.8c-3.2,0-1.5-3.6-1.5-5.5
	C710.6,675.7,709,672.1,712.1,672.1z M710.5,584c0-1-0.1-2.2,1.3-2.4c1.9-0.2,1.8,1.2,1.8,2.4c0,2.1,0.1,4.1,0,6.2
	c-0.1,1.1,0.7,2.7-1.3,2.8c-2.3,0.2-1.7-1.6-1.8-2.9c-0.1-1,0-2.1,0-3.1C710.5,586.1,710.5,585.1,710.5,584z M711.9,600.6
	c3.7,0,0.4,4,1.7,5.1c0,1.9,0,3.1,0,4.3c0,0.9-0.2,1.7-1.3,1.8c-1.4,0.1-1.7-0.8-1.8-1.9c0-1.2-0.2-2.4,0-3.6
	C710.9,604.2,709.1,600.6,711.9,600.6z M710.5,655.1c-0.1-1,0-2,0-3.1c0-1,0-2,0-3.1c0-1.1,0-2.2,1.4-2.3c1.8-0.2,1.8,1.1,1.8,2.4
	c0,2,0.1,4.1,0,6.1c-0.1,1.2,0.7,3.1-1.6,3C709.9,658.1,710.5,656.3,710.5,655.1z M710.5,631.2c-0.1-1.5-0.1-3.1,0-4.7
	c0.1-1.2-0.6-3.1,1.7-3c2.3,0.1,1.3,2,1.5,3.2c0.1,0.8,0,1.7,0,2.6c0,0.7,0.1,1.4,0,2.1c-0.3,1.3,0.9,3.7-1.6,3.6
	C709.7,634.8,710.6,632.5,710.5,631.2z M714.1,814.3c0,0.5,0,0.7,0,0.9c-0.3,1.7,1.1,4.6-1.5,4.7c-2.7,0-1.1-3-1.5-4.6
	c0-0.2-0.1-0.4,0-0.5c0.7-1.9-1.6-5.5,1.5-5.5C715.8,809.2,713.3,812.9,714.1,814.3z M712.3,743.7c2.7,0.1,0.6,3.8,1.4,5.6
	c-0.7,1.9,1,5.3-1.4,5.4c-3.5,0.1-1.8-3.5-1.8-5.3C710.6,747.4,708.8,743.6,712.3,743.7z M712.3,766.8c2.7,0,0.6,3.7,1.5,5.7
	c-1.2,1.7,1.6,5.3-1.7,5.3c-3.2,0-1.5-3.5-1.5-5.4C710.6,770.5,709,766.7,712.3,766.8z M710.5,792.3c0-1.2-0.2-2.6,1.6-2.7
	c1.9-0.1,1.5,1.4,1.6,2.5c0,1.2,0,2.4,0,3.6c0,1,0,2,0,3.1c0,1.2,0,2.6-1.7,2.4c-1.3-0.1-1.5-1.2-1.5-2.3
	C710.5,796.7,710.4,794.5,710.5,792.3z M718.8,905.8c-0.8,0.1-1.7,0-2.6,0c-0.9,0-1.7,0.1-2.6,0c-1.2-0.2-3.2,0.6-3.1-1.6
	c0.1-2.1,2-1.4,3.2-1.5c1.7-0.1,3.4-0.1,5.2,0c1.3,0.1,3.2-0.5,3.1,1.7C721.9,906.5,720,905.6,718.8,905.8z M711.6,523.7
	c-14.9,0.1-27.1-11.9-27.2-26.8c-0.2-15.1,12-27.5,27.1-27.6c15.2-0.1,27.5,12,27.5,27.1C739,511.5,726.9,523.7,711.6,523.7z
	 M731.2,546.3c-0.4-1.3,0.6-1.7,1.6-2.2c2.5-1.2,4.9-2.6,7.3-3.9c1.4-0.7,2.3-0.4,2.7,1.5c-0.5,0.5-1.1,1.1-1.8,1.5
	c-2.3,1.3-4.5,2.5-6.8,3.6C733.1,547.4,731.8,548,731.2,546.3z M739.9,905.8c-0.9,0-1.4,0.1-1.9,0c-1.4-0.4-4.1,1.2-4.1-1.5
	c0-2.5,2.6-1.3,4.1-1.6c0.5-0.1,1.1-0.1,1.5,0c1.9,0.6,5.5-1.5,5.5,1.6C745.1,907.3,741.4,905.1,739.9,905.8z M749.9,462.7
	c-2.5-2.3-5-4.6-7.5-6.9c-0.6-0.6-0.3-1.3,0.1-1.8c0.3-0.3,0.8-0.4,1.2-0.6c3.3,2.1,6,4.6,8.5,7.5c0.5,0.6,0.1,1.3-0.5,1.7
	C751.2,462.9,750.7,463.4,749.9,462.7z M752.4,532.6c-1.3-0.6-1.4-1.5-0.5-2.8c1.6-2.2,3.2-4.5,4.7-6.8c0.7-1,1.2-2.3,2.7-1.2
	c1.2,0.9,0.4,1.8-0.2,2.6c-1.5,2.3-3.1,4.6-4.6,6.8C754.1,532,753.6,532.8,752.4,532.6z M764.4,906c-1.8-0.9-5.2,1.2-5.2-1.6
	c-0.1-3.1,3.3-1.6,5-1.6c2.1,0,6.1-1.4,6.1,1.4C770.3,907.6,766.3,904.8,764.4,906z M790.4,905.8c-0.8,0.1-1.7,0-2.6,0
	c-0.9,0-1.7,0.1-2.6,0c-1.2-0.1-3.1,0.6-3-1.6c0.1-2.1,2-1.3,3.2-1.4c1.7-0.1,3.4-0.1,5.1,0c1.2,0.1,3.1-0.5,3,1.6
	C793.5,906.5,791.6,905.6,790.4,905.8z M811.4,905.7c-2-0.2-5.8,1.7-5.8-1.7c0.1-2.6,3.8-0.7,5.8-1.5c1.7,1,5.3-1.5,5.3,2
	C816.6,906.8,813.1,905.9,811.4,905.7z M832,905.8c-0.5,0.1-1,0-1.9,0c-1.6-0.8-5.3,1.4-5.3-1.3c0-3.3,3.8-1.2,5.8-1.8
	c0.5-0.1,1-0.1,1.5,0c1.5,0.3,4.1-1,4,1.7C836.1,907,833.5,905.4,832,905.8z M856.5,905.8c-0.7,0.1-1.4,0-2.4,0
	c-1.6-0.9-5.5,1.5-5.5-1.6c0-2.9,3.9-1,5.9-1.5c0.6-0.2,1.4-0.1,2,0c1.2,0.2,3.2-0.7,3.3,1.4C860.1,906.7,857.8,905.5,856.5,905.8z
	 M865.5,796.7c0.8,2.3,0.8,4.6,0,6.9c0,16.3-0.1,32.7-0.1,49l0.1,0c0.1,0.4,0.2,0.8,0.3,1.2c-1.7,1.2-3.6,0.9-5.5,0.9
	c-29.7,0-59.5,0-89.2,0c-2.2,0-4.5,0.4-6.5-1c0-0.3,0-0.5,0-0.8c0-16.4,0-32.7,0-49.1c-1.8-4.4-0.8-9-0.8-13.6
	c0-11.6,0-23.3-0.2-34.9c-0.1-4.1,1.3-5.3,5.1-4c31.5-0.1,62.9-0.2,94.4-0.3c0.9,0,2.1-0.4,2.7,0.9c-0.1,0.3-0.2,0.7-0.3,1
	c0,9,0.1,18.1,0.1,27.1c3.7,4.8,1.8,9.7,0,14.5C865.4,795.2,865.4,795.9,865.5,796.7z M871,702.8c-1,0-1.6,0.1-2.3,0
	c-1.3-0.2-3.6,0.7-3.5-1.7c0.1-2.4,2.3-1.2,3.6-1.4c0.7-0.1,1.4-0.1,2,0c1.8,0.4,5.1-1.2,5.1,1.4C876.1,704.4,872.5,701.9,871,702.8
	z M877.3,906c-1.6-1.1-5,1.4-5.1-1.6c-0.1-3.2,3.3-1.7,4.9-1.5c2.2,0.2,6.3-1.9,6.3,1.6C883.4,907.4,879.4,905,877.3,906z
	 M917.8,583.4c-3.1,0-1.5-3.3-1.5-5c0-2.1-1.5-6,1.5-5.9c3.4,0,0.5,4,1.8,5.9C918.5,580.1,920.8,583.4,917.8,583.4z M919.3,601
	c0,1.4,0,2.4,0,3.5c0,1,0.1,2.2-1.3,2.3c-1.7,0.1-1.9-1.1-1.9-2.4c0-1-0.2-2.1,0-3.1c0.4-2-1.2-5.7,1.4-5.7
	C921.1,595.6,918.3,599.5,919.3,601z M919.3,506.1c0,0.9,0.1,1.4,0,1.9c-0.5,1.4,1.2,4.1-1.6,4c-2.7,0-1.1-2.7-1.6-4.1
	c-0.1-0.5-0.1-1.1,0-1.5c0.6-1.9-1.5-5.5,1.6-5.5C920.8,500.9,918.6,504.6,919.3,506.1z M917.7,524.1c3.1,0,0.8,3.7,1.8,5.5
	c-1,1.9,1.4,5.5-1.7,5.5c-3.1,0.1-1.5-3.6-1.5-5.5C916.3,527.7,914.7,524.1,917.7,524.1z M917.8,396.5c-3.2,0.1-1.4-3.6-1.5-5.4
	c0-1.9-1.7-5.5,1.4-5.6c3.4,0,0.6,3.6,1.8,5.3C918.5,392.8,920.8,396.4,917.8,396.5z M919.3,409.2c0.1,1.7,0.1,3.4,0,5.2
	c0,1.3,0.4,3.1-1.7,3.1c-2.1-0.1-1.3-2-1.4-3.2c-0.1-0.8,0-1.7,0-2.6c0-0.9-0.1-1.7,0-2.6c0.1-1.2-0.5-3.1,1.7-3
	C920,406.1,919.2,408,919.3,409.2z M919.3,434.4c0,1.4,0.1,2.3,0,3.1c-0.2,1.2,0.7,3.1-1.6,3c-1.6-0.1-1.5-1.6-1.5-2.8
	c0-0.9-0.2-1.8,0-2.6c0.5-2.1-1.5-5.8,1.7-5.8C920.8,429.4,918.3,433.1,919.3,434.4z M919.3,461.5c0,1,0.1,2.3-1.3,2.4
	c-1.6,0.2-1.9-1.1-1.9-2.4c0-2.2,0-4.4,0-6.6c0-1.2-0.1-2.6,1.5-2.7c1.8,0,1.5,1.5,1.6,2.6c0.1,1.2,0,2.4,0,3.6
	C919.3,459.5,919.3,460.5,919.3,461.5z M917.6,219.2c3.4,0,0.8,3.9,1.9,5.8c-0.9,1.8,1.1,5.2-1.6,5.2c-3.4,0-1.5-3.5-1.6-5.4
	C916.2,222.9,914.8,219.2,917.6,219.2z M917.8,195.9c2.4,0.1,1.2,2.7,1.5,4.2c0.1,0.5,0,1,0,1.5c0,0.8,0,1.7,0,2.5
	c-0.1,1.3,0.2,3.1-1.8,3c-1.9-0.1-1.4-2-1.4-3.3c-0.1-1.4-0.2-2.7,0-4.1C916.4,198.4,915.2,195.8,917.8,195.9z M917.6,373.5
	c-2.2-0.1-1.3-2.3-1.5-3.7c-0.1-0.7,0-1.4,0-2c0,0,0,0,0,0c0-1,0-2,0-3.1c0-1.2,0-2.7,1.7-2.5c1.7,0.1,1.4,1.6,1.5,2.8
	c0.1,1.7,0.1,3.4,0,5.1C919.2,371.3,919.9,373.6,917.6,373.5z M919.3,344.2c0,1.9,0,3.1,0,4.3c0,0.9-0.2,1.8-1.4,1.8
	c-1.3,0-1.8-0.7-1.8-1.9c0-1.2-0.2-2.5,0-3.6c0.4-2-1.3-5.7,1.4-5.7C921.4,339,917.9,343.1,919.3,344.2z M916.1,247.6
	c-0.2-0.6-0.1-1.4,0-2c0.2-1.3-0.7-3.6,1.8-3.4c2,0.2,1.1,2.1,1.3,3.3c0.1,0.7,0,1.4,0,2.5c-0.9,1.4,1.7,5.3-1.7,5.2
	C914.8,253.2,916.7,249.5,916.1,247.6z M916.2,319.1c-0.2-0.6-0.1-1.4,0-2.1c0.1-1.4-0.6-3.6,1.9-3.4c2,0.2,1,2.2,1.2,3.4
	c0.1,0.7,0,1.4,0,2.4c-0.7,1.6,1.4,5.3-1.3,5.4C914.5,324.9,916.8,321.1,916.2,319.1z M917.7,278.7c-2.1-0.1-1.4-2-1.5-3.2
	c-0.1-0.8,0-1.7,0-2.6c0-0.7-0.1-1.4,0-2.1c0.3-1.3-0.7-3.7,1.7-3.6c2.3,0.1,1.2,2.4,1.4,3.7c0.2,1.5,0.1,3.1,0,4.6
	C919.2,276.9,919.9,278.8,917.7,278.7z M917.9,290.7c3,0,0.3,3.8,1.4,5c0,1.7,0.1,2.7,0,3.7c-0.1,1.1,0.1,2.7-1.7,2.5
	c-1.3-0.1-1.4-1.3-1.4-2.3c0-1-0.3-2.1,0-3.1C916.7,294.5,914.5,290.7,917.9,290.7z M916.1,554.5c-0.2-0.8,0-1.7,0-2.6
	c0-1.2-0.2-2.7,1.5-2.8c2.2-0.1,1.5,1.8,1.6,3c0.1,0.9,0,1.7,0,3c-0.7,1.5,1.4,5.2-1.4,5.2C914.7,560.3,916.6,556.5,916.1,554.5z
	 M916.1,134.4c0.1-1.3-0.3-3.1,1.8-3c1.7,0.1,1.4,1.7,1.4,2.8c0.1,2,0,4.1,0,6.1c0,1.2,0.3,2.6-1.5,2.7c-1.7,0.1-1.7-1.3-1.7-2.5
	c0-1.2,0-2.4,0-3.6c0,0,0,0,0,0C916.1,136.1,916.1,135.2,916.1,134.4z M916.2,160.3c-0.2-0.8-0.1-1.7,0-2.6c0.1-1.1-0.3-2.7,1.4-2.8
	c2.3-0.1,1.6,1.8,1.7,3c0.1,0.8,0,1.7,0,3c-0.9,1.6,1.6,5.5-1.6,5.5C914.8,166.4,916.7,162.5,916.2,160.3z M917.9,179
	c2.9,0,0.6,3.7,1.6,5.5c-1,1.9,1.4,5.5-1.7,5.6c-3.2,0.1-1.6-3.5-1.6-5.4C916.3,182.8,914.6,179,917.9,179z M916.3,483.5
	c0-2-1.5-5.7,1.3-5.7c3.5,0,0.8,3.9,1.9,5.6c-0.7,1.9,1,5.3-1.5,5.4C914.5,488.9,916.3,485.4,916.3,483.5z M917.7,638.1
	c3.4-0.1,0.6,4,1.8,5.8c-0.9,1.9,1.2,5.1-1.7,5.3c-3.3,0.1-1.6-3.2-1.6-4.9C916.3,642.1,914.7,638.1,917.7,638.1z M917.7,672.3
	c-3.2,0-0.9-3.6-1.8-5.5c0.9-1.9-1.3-5.5,1.7-5.6c3.1-0.1,1.5,3.5,1.5,5.4C919.2,668.7,920.6,672.3,917.7,672.3z M917.7,743.8
	c-3,0-1.5-3.6-1.5-5.5c0-1.9-1.5-5.5,1.6-5.5c3,0.1,0.7,3.7,1.7,5.6C918.4,740.2,920.9,743.8,917.7,743.8z M916.1,763.2
	c-0.2-0.6-0.1-1.4,0-2c0.1-1.3-0.5-3.2,1.4-3.3c2.5-0.1,1.4,2.1,1.7,3.4c0.1,0.7,0,1.4,0,2.4c-0.7,1.5,1.3,5.3-1.4,5.3
	C914.8,769,916.6,765.3,916.1,763.2z M917.8,686.3c2.3,0,1.3,2,1.5,3.2c0.1,0.8,0,1.7,0,2.6c0,0.7,0.1,1.4,0,2.1
	c-0.3,1.3,1,3.6-1.5,3.6c-2.3,0-1.5-2.3-1.6-3.7c-0.1-1.5-0.1-3.1,0-4.7C916.2,688.1,915.6,686.3,917.8,686.3z M917.9,709.7
	c2.8,0,0.6,3.8,1.4,5.3c0,1.4,0,2.5,0,3.5c0,1.2,0.1,2.5-1.8,2.4c-1.5-0.1-1.3-1.3-1.4-2.3c0-1-0.2-2.1,0-3.1
	C916.6,713.4,914.7,709.6,917.9,709.7z M917.5,781.2c3.4,0,0.8,3.9,2,5.7c-0.9,1.8,1.1,5.2-1.5,5.2c-3.5,0.1-1.7-3.5-1.7-5.3
	C916.3,784.9,914.7,781.2,917.5,781.2z M918,883.9c-3.3,0.1-1.7-3.5-1.7-5.3c0-2.1-1.5-6,1.5-5.9c3.2,0.1,0.6,4,1.7,5.9
	C918.7,880.5,920.5,883.9,918,883.9z M916.1,830.5c-0.2-0.8,0-1.7,0-2.6c0-1.2-0.2-2.7,1.4-2.8c2.2-0.1,1.6,1.7,1.7,3
	c0.1,0.9,0,1.7,0,3c-1,1.5,1.7,5.5-1.6,5.5C914.8,836.5,916.6,832.6,916.1,830.5z M919.3,854.4c0,1.1,0.1,1.8,0,2.5
	c-0.3,1.3,0.8,3.6-1.6,3.5c-2.2-0.1-1.3-2.3-1.5-3.7c-0.1-0.7-0.2-1.4,0-2c0.5-2-1.2-5.7,1.5-5.7C921,849.1,918.2,853,919.3,854.4z
	 M917.8,815.4c-3.1,0.1-1.6-3.3-1.6-4.9c0-2.1-1.5-6.1,1.4-6.1c3.5,0,0.4,4,1.9,5.6C918.6,812,920.7,815.3,917.8,815.4z M917.8,626
	c-3.1,0-1.5-3.6-1.5-5.5c0-1.8-1.8-5.5,1.5-5.5c3.5,0,0.2,3.8,2,5.1C918.4,622.3,920.9,626,917.8,626z"/>
</svg>
