<?xml version="1.0" encoding="utf-8"?>
<!-- Generator: Adobe Illustrator 25.4.1, SVG Export Plug-In . SVG Version: 6.00 Build 0)  -->
<svg version="1.1" id="Capa_1" xmlns="http://www.w3.org/2000/svg" xmlns:xlink="http://www.w3.org/1999/xlink" x="0px" y="0px"
	 width="595.3px" height="595.3px" viewBox="0 0 595.3 595.3" style="enable-background:new 0 0 595.3 595.3;" xml:space="preserve"
	>
<style type="text/css">
	.st0{fill:#FF00FF;}
</style>
<path class="st0" d="M530.2,146c0-33.7-24.6-64.5-60-70.3c-3.8-0.6-7.7-0.9-11.5-0.9c-107.2,0-214.5,0-321.7,0
	c-34,0-63.2,23.7-70.1,56.9c-0.7,3.2-0.9,6.5-1.3,9.8c-0.1,0.4-0.2,0.7-0.3,1.1V206c0.2,1.9,0.5,3.7,0.4,5.6c0,48.9,0,97.9,0,146.8
	c0,8.8,0,17.6,0,26.4c0,2.1-0.2,4.2-0.3,6.3c0,0.3-0.1,0.5-0.2,0.7c0,21.2,0,42.3,0,63.4c0.2,1.3,0.4,2.6,0.5,3.9
	c3,30.8,26.3,56.4,56.9,62.6c4.6,0.9,9.2,1.4,13.9,1.4c19.8,0,39.5,0,59.2,0c56.2-0.1,112.5-0.1,168.8-0.1c10.2,0,20.3,0,30.4,0
	c21.4,0,42.8,0.1,64.2,0.1c26.6,0,51.5-15.4,63.4-39.2c5.1-10.2,7.7-20.9,7.7-32.3C530.2,349.7,530.1,247.9,530.2,146z M387.9,75.7
	c0.5,0,1,0,1.5,0c-14.2,3-26.6,9.4-37,19.6c-10.4,10.1-17,22.3-20.3,36.4c-0.3-1.9-0.4-3.8-0.7-5.7c-1.5-8.8-5.7-16.2-11.6-22.7
	c-5.6-6.2-12.2-10.9-19.4-14.9c-0.3-0.2-0.7-0.4-1-0.6c-0.1-0.1-0.1-0.1-0.2-0.3c0.7-0.4,1.3-0.7,1.9-1c10.3-4.7,21-7.8,32.2-9.4
	c7.3-1.1,14.7-1.4,22.1-1.4C366.2,75.7,377.1,75.7,387.9,75.7z M516.4,301.1c6.6,9.8,10.6,20.5,12.1,32.1c0.6,4.3,0.9,8.7,0.9,13.1
	c0.1,11.6,0,23.1,0,34.7c0,0.5,0,0.9,0,1.6c-7.5-31.7-27-50.9-58.3-58.1c18.6-1.1,32.9-10.1,44.3-24.8
	C515.8,300.2,516.1,300.6,516.4,301.1z M516.5,298.1c6.4-9.2,10.4-19.3,12.4-30.3c0.1-0.3,0.2-0.6,0.3-0.9c0.1,0,0.1,0,0.2,0
	c0,21.3,0,42.6-0.1,64c0,0.1-0.1,0.1-0.1,0.1c-0.1-0.3-0.2-0.6-0.3-0.9c-2-11-6-21.1-12.4-30.3C516.1,299.2,516.1,298.7,516.5,298.1
	z M529.4,251.9c0,15.4-3.6,29.8-11.9,43c-0.5,0.9-1.1,1.7-1.7,2.6c-0.1,0.2-0.2,0.3-0.4,0.5c-11.2-14.5-25.3-23.5-43.9-24.7
	c31.1-7.4,50.3-26.6,57.8-57.8c0.1,0.4,0.1,0.7,0.1,1C529.4,228.3,529.4,240.1,529.4,251.9z M501.6,285.5c4.8,3.6,9,7.8,12.6,12.6
	c0.4,0.4,0.7,0.8,0.2,1.5c-8.1,10.5-18.1,18.2-31,22c-4.7,1.3-9.5,2-14.3,2c-16.4,0.1-32.8,0.1-49.2,0c-10.1-0.1-20.1-1.1-29.7-4.7
	c-6.4-2.4-12.2-5.8-16.3-11.5c-1.6-2.3-2.7-4.9-3.9-7.4c-0.3-0.7-0.2-1.7,0-2.4c2-6,5.8-10.6,11-14.1c5.7-3.9,12.2-6.1,18.9-7.5
	c7.2-1.4,14.5-1.9,21.8-1.9c7.4,0,14.8,0,22.2,0c8.5,0,17,0,25.5,0.2C481.4,274.4,492,278.3,501.6,285.5z M404.5,323.6
	c-21.3-0.4-39.7,7.4-54.8,23c5.7-6.4,10.3-13.4,13.6-21.3c3.3-7.8,5.1-16,5.8-24.4c1.4,3.2,3.1,6.1,5.3,8.6
	c4.7,5.2,10.5,8.5,17,10.6C395.8,321.6,400.4,322.5,404.5,323.6z M388.1,278.9c-6.5,2.8-12.2,6.6-16,12.7c-1.1,1.6-1.8,3.3-2.9,5.1
	c-0.5-13.8-4.3-26.5-11.7-38.2c13.8,10.7,29.3,16,46.8,15.8C398.6,275.3,393.1,276.6,388.1,278.9z M367.3,287.3
	c3.1,22.6-3.1,42.6-18.9,59.2c-10.9,11.5-24.5,18.6-40.2,20.8c-21.8,3-43.9-4.1-59.8-19.4C237,337,230.3,323.5,228,308
	c-0.5-3.3-0.7-6.6-1-9.9c0.1-15,4.3-28.7,13-40.9c1.3-1.8,3.1-3.2,4.7-4.9c1.3-1.3,2.7-2.6,3.7-4.1c3.2-4.5,7.6-7.5,12.1-10.4
	c8.8-5.5,18.4-9,28.7-10.1c21-2.2,39.6,3.4,55.4,17.4c2.3,2.1,4,4.7,6.2,6.9C360.4,261.9,365.5,273.9,367.3,287.3z M264.5,389.2
	c-0.8-10.7-4-20.7-9.4-29.9c-2-3.4-4.3-6.5-6.6-10c13,12.2,28.3,18.3,45.7,19.9c-17.7,5-25.9,17.8-29.5,34.6c0-0.4,0-0.8,0-1.2
	C264.7,398.1,264.8,393.7,264.5,389.2z M264.8,415.5c0.1-9.8,2-19.3,6.9-28c5.6-10,14.2-15.8,25.4-17.8c1.5-0.2,3.3,0.4,4.9,0.8
	c12.4,3.4,20.4,11.5,24.9,23.3c2.6,7,3.8,14.2,3.9,21.6c0,5.6,0,11.3,0,16.9c0,6.2,0,12.4,0.1,18.7c0.1,4,0.1,8.1,0.2,12.1
	c0.2,10.8-3.5,20.1-10.3,28.4c-6.1,7.5-13.7,13.1-22.2,17.6c-0.4,0.1-1,0.2-1.3,0c-11.2-6-20.8-13.6-27.2-24.7
	c-3.6-6.2-5.4-12.9-5.4-20.2C264.8,448,264.6,431.7,264.8,415.5z M330.9,395.7c-0.1,2.6,0,5.2-0.3,7.8c-0.3-1.2-0.6-2.4-0.9-3.6
	c-1.9-7.5-5-14.4-10.4-20.1c-4.6-4.9-10.2-8.1-16.6-10c-0.4-0.1-0.8-0.3-1.6-0.5c0.7-0.2,1.2-0.2,1.5-0.2c4.4-0.8,8.7-1.3,13-2.4
	c12.6-3.2,23.3-9.5,32.5-18.6c0.3-0.2,0.5-0.5,0.8-0.7c0.1-0.1,0.2-0.1,0.4,0c-0.2,0.3-0.4,0.6-0.7,0.9
	c-8.9,10.3-14.5,22.1-16.7,35.5C331.2,387.7,331.1,391.7,330.9,395.7z M124.9,322.7c-10.6-0.2-20.2-3.8-28.9-9.9
	c-5.5-3.9-10.2-8.6-14.2-13.9c-0.4-0.5-0.7-0.9-0.2-1.6c7.9-10.5,17.9-18.2,30.7-22c4.3-1.3,8.7-2,13.2-2c2.3,0,4.6,0.4,6.9,0.6
	c1,0,1.9,0.1,2.8,0.1c16.2,0,32.4,0.1,48.6,0c7.5-0.1,14.7,1.5,21.7,4.1c5.2,2,9.8,4.8,13.7,8.8c2.8,2.9,4.9,6.3,6.1,10.1
	c0.2,0.5,0.2,1.4,0,1.9c-2.4,7.3-7.3,12.4-13.8,16.1c-6.1,3.5-12.8,5.4-19.7,6.5c-6.3,1.1-12.6,1.3-18.9,1.3c-7,0-14,0-21-0.1
	C142.9,322.7,133.9,322.8,124.9,322.7z M79.9,298.1c-6.8,9.6-11,20.2-13.2,31.7v-63.6C68.9,277.7,73.1,288.4,79.9,298.1z
	 M66.7,252.1c0-11,0-21.9,0-32.9c0-0.5,0-1,0-1.7c7.6,29,25.8,47.3,54.6,55.2c-17.3,2.1-30.4,10.9-41,24.8
	c-2.1-3.9-4.3-7.4-6.1-10.9c-4.2-8.9-6.7-18.2-7.3-28C66.8,256.4,66.7,254.3,66.7,252.1z M79.9,299.7c0.2-0.2,0.4-0.4,0.6-0.7
	c12.9,16.6,29.4,25.9,50.9,24.6c-34,4.7-55.5,23.6-64.7,56.2c0-0.1,0-0.4-0.1-0.7c0-12.8-0.2-25.7,0.1-38.5
	C67.1,325.8,71.5,312.1,79.9,299.7z M195.5,274.3c15.5-0.7,29.4-5.7,41.8-15.1c-7,11.2-10.6,23.5-11,36.7c-0.1,0-0.2,0-0.3,0
	c-0.1-0.2-0.2-0.4-0.3-0.6c-2.5-6.2-6.9-10.8-12.5-14.3c-5.3-3.3-11.2-5.2-17.2-6.5C195.8,274.5,195.7,274.5,195.5,274.3z
	 M181.8,323.6c3.4-0.4,6.7-0.7,9.9-1.3c8.6-1.4,16.9-3.9,24-9.1c4.4-3.3,7.7-7.3,9.8-12.4c0.1-0.2,0.3-0.4,0.6-0.7
	c1,15.8,6.2,30.1,16,42.6c-0.2-0.1-0.5-0.3-0.7-0.5c-10.3-9.2-22.2-15.2-35.8-17.5c-3.7-0.6-7.4-0.8-11.1-1c-4.2-0.1-8.5,0-12.7,0
	V323.6z M264.9,130.8c0.1-7.4,2.6-14,6.6-20.1c5.4-8.3,12.7-14.5,21.1-19.6c1.5-0.9,3.1-1.8,4.7-2.6c0.3-0.1,1-0.2,1.3,0
	c10.7,5.7,20,12.8,26.5,23.2c4.1,6.6,6.2,13.8,6.1,21.6c-0.2,17.1,0,34.3-0.5,51.4c-0.3,11.5-3.7,22.1-11.7,30.7
	c-5.6,6-12.6,9.3-20.6,10.6c-1.5,0.2-3.1-0.4-4.6-0.8c-12.1-3.3-20.2-11.1-24.8-22.7c-2.8-7-4-14.3-4.1-21.8c-0.1-8.2,0-16.4,0-24.6
	C264.9,147.6,264.8,139.2,264.9,130.8z M264.9,191.2c0.3,1.5,0.6,3.1,1,4.6c1.9,7.5,5,14.3,10.3,20c4.5,4.8,10,8,16.3,9.9
	c0.5,0.2,0.9,0.3,1.4,0.6c-14.9,0.9-28.4,6-40.3,15c2.8-4.8,5.3-9.7,7.1-14.7c2.6-7.5,4-15.2,4-23.1
	C264.7,199.4,264.7,195.3,264.9,191.2z M342.4,242.1c-12-9.4-25.4-14.7-40.5-15.8c16.7-4.7,25-16.6,28.9-32.6c0,0.4,0,0.9,0,1.4
	c0.1,4.8,0,9.6,0.4,14.4c0.9,11.2,4.5,21.5,10.4,31c0.3,0.4,0.6,0.8,0.8,1.2C342.4,241.7,342.4,241.8,342.4,242.1z M335.1,75.8
	L335.1,75.8c-2.6,0.5-5.1,0.9-7.7,1.4c-9.8,1.9-19.2,4.9-28.2,9.3c-0.9,0.4-1.6,0.5-2.5,0c-9.8-4.9-20.1-8-30.9-9.8
	c-1.7-0.3-3.3-0.5-5-0.8c0,0,0-0.1-0.1-0.2C285.6,75.7,310.4,75.7,335.1,75.8z M207,75.7c13.8,0,27.6-0.3,41.4,0.1
	c16.5,0.4,32.3,3.9,47.3,11.1c0.4,0.1,0.7,0.3,1.2,0.6c-1.2,0.7-2.3,1.3-3.3,2.1c-8.6,5-16.2,11.1-21.9,19.3
	c-5,7.2-7.9,15.2-7.7,24.2c0,0.2,0,0.4,0,1c-7.4-31.5-26.6-50.8-57.6-58.3C206.5,75.8,206.7,75.7,207,75.7z M121.6,77.4
	c5.5-1.2,11.1-1.8,16.7-1.7c17.7,0.3,35.5,0.3,53.3,0c17-0.3,32.3,4.8,45.5,15.3c13.9,11,22.5,25.4,25.7,42.9
	c0.8,4.5,1,9.1,1.1,13.6c0.1,9,0,18.1,0,27.1s-0.1,18,0,26.9c0.1,9.5-1.5,18.7-5.1,27.5c-2.1,5.1-4.7,10-8,14.4
	c-1.3,1.8-3.2,3.2-4.7,4.8c-1.1,1.3-2.4,2.4-3.3,3.8c-3,4.3-7.1,7.4-11.4,10.1c-9,5.7-19,9.5-29.5,10.7c-5.7,0.6-11.4,0.7-17.1,0.1
	c-4.8-0.5-9.6-0.3-14.4-0.4c-13.1-0.2-26.2,0.1-39.3,0.1c-5.6,0-11-0.9-16.2-2.8c-25.6-9.2-41.4-27.2-47.3-53.8
	c-0.6-2.7-0.8-5.5-0.8-8.3c-0.1-12.2,0.3-24.5-0.2-36.8c-0.3-8.1-0.3-16.1-0.3-24.2C66.3,113.5,89.2,84.4,121.6,77.4z M193.6,522.1
	c-17.5,0.2-34.9,0.1-52.4,0.1c-4.9,0-9.7,0-14.5-0.7c-11.5-1.6-22-5.8-31.3-12.7c-14.6-10.7-23.9-24.9-27.7-42.6
	c-1-4.5-1.7-9.2-1.5-13.7c0.8-20.7,0.1-41.4,0.4-62.1c0.1-5.3,1.8-13.9,3.7-18.9c9.1-23.7,25.9-38.7,50.2-45c5.3-1.4,10.9-2,16.4-2
	c19,0.1,37.9-0.2,56.9,0.1c16.3,0.2,32.1,5.9,44.6,16.4c13.5,11.3,21.7,25.8,24.5,43.1c0.7,4,0.8,8.2,0.9,12.3c0.2,9,0.1,18,0,27
	c0,9.7,0.1,19.4,0,29.2c-0.2,18.4-6.9,34.3-19.5,47.7c-10.4,10.9-23,17.8-37.9,20.6C202.2,521.7,197.9,522.1,193.6,522.1z
	 M242.2,522.1c-11.4,0.1-22.7,0-34.1,0c-0.4,0-0.9,0-1.3,0c0-0.1-0.1-0.2-0.1-0.3c14.4-2.9,26.8-9.4,37-19.7
	c10.3-10.3,16.8-22.7,19.7-37c0.1,0,0.2,0,0.3,0c0,0.6,0,1.1,0,1.7c0.1,0.6,0.1,1.2,0.2,1.8c0.7,7.8,3.7,14.7,8.3,21
	c6.1,8.4,14,14.6,23,19.6c0.5,0.3,0.9,0.5,1.7,1c-3.6,1.5-6.9,3-10.3,4.3c-10.1,3.8-20.5,6.1-31.2,7
	C251,521.8,246.6,522.1,242.2,522.1z M260.5,522c0-0.1,0-0.1,0-0.2c1.4-0.2,2.9-0.5,4.3-0.7c11.1-1.8,21.7-5.1,31.8-10.1
	c0.8-0.4,1.5-0.4,2.3,0c10.6,5.2,21.8,8.5,33.4,10.3c0.8,0.1,1.6,0.3,2.4,0.4c0.1,0.1,0.2,0.1,0.7,0.3
	C310.2,522,285.4,522,260.5,522z M387.5,522c-12.3,0-24.6,0.2-36.9,0c-17.2-0.2-33.8-3.5-49.5-10.9c-0.7-0.3-1.4-0.6-2.3-1.1
	c0.7-0.4,1.1-0.7,1.4-1c8.3-4.7,15.8-10.4,21.7-17.9c5.1-6.5,8.4-13.7,9.5-21.9c0.1-0.7,0.1-1.4,0.2-2.1c0.1-0.7,0.2-1.4,0.2-2
	c7.5,30.3,26.4,49.2,56.9,56.8C388.2,522,387.9,522,387.5,522z M529.5,450.3c0,19-6.2,35.6-19.2,49.5
	c-10.8,11.6-24.2,18.8-39.9,21.4c-3.9,0.6-7.8,0.8-11.7,0.9c-9.4,0.2-18.7,0.1-28.1,0c-10.4,0-20.7,0.2-31.1,0
	c-9.2-0.2-18.3-2.3-26.6-6.3c-20.8-10.1-34-26.3-39.5-48.7c-1.1-4.4-1.6-9-1.6-13.6c0-11.8,0-23.5,0-35.2
	c-0.1-7.6-0.2-15.1-0.2-22.7c0-13.4,3.4-26,10.6-37.4c11.1-17.5,26.8-28.4,47.2-32.5c4.3-0.9,8.6-1.2,12.9-1.2
	c19,0.1,37.9-0.2,56.8,0.1c16,0.2,31.7,5.6,44.1,15.8c13.5,11,21.9,25.1,25,42.2c0.8,4.4,1.2,8.9,1.2,13.4
	C529.6,414.1,529.5,432.2,529.5,450.3z M529.5,201.2c0,20.2-6.9,37.5-21.3,51.7c-10.5,10.4-23.2,16.9-37.8,19.2
	c-4.1,0.7-8.2,1-12.3,1c-18.8,0.1-37.7,0.1-56.5,0c-15.7-0.1-29.6-5.2-42.1-14.5c-3.7-2.8-6.4-6.5-9.6-9.7
	c-9.3-9.2-14.3-20.5-16.8-33.1c-0.8-4.2-1.1-8.5-1.3-12.8c-0.2-5.6,0-11.1,0-16.7c0.1-15.4,0.1-30.8,0.4-46.1c0.1-7.1,2-14,4.8-20.5
	c9.8-22.6,26.7-36.9,50.7-42.6c4.7-1.1,9.6-1.5,14.5-1.5c9.4,0,18.9,0,28.4,0c9.4,0,18.8,0,28.3-0.2c15.8,0.1,30.1,4.8,42.6,14.4
	c15.1,11.5,24.2,26.8,27.2,45.6c0.5,3.7,0.8,7.5,0.8,11.2C529.6,164.8,529.5,183,529.5,201.2z"/>
</svg>
